<svg width="12" height="12" viewBox="0 0 12 12" fill="none" xmlns="http://www.w3.org/2000/svg">
<path d="M11 3.2V8.8C11 9.11826 10.8784 9.42348 10.662 9.64853C10.4457 9.87357 10.1522 10 9.84615 10H2.15385C1.84783 10 1.55434 9.87357 1.33795 9.64853C1.12157 9.42348 1 9.11826 1 8.8V3.2M11 3.2C11 2.88174 10.8784 2.57652 10.662 2.35147C10.4457 2.12643 10.1522 2 9.84615 2H2.15385C1.84783 2 1.55434 2.12643 1.33795 2.35147C1.12157 2.57652 1 2.88174 1 3.2M11 3.2V3.3296C11 3.53448 10.9496 3.73595 10.8536 3.91482C10.7575 4.0937 10.619 4.24402 10.4513 4.35147L6.60513 6.8128C6.42318 6.92935 6.21369 6.99107 6 6.99107C5.78631 6.99107 5.57682 6.92935 5.39487 6.8128L1.54872 4.352C1.38099 4.24455 1.2425 4.09423 1.14645 3.91536C1.05039 3.73648 0.999978 3.53501 1 3.33013V3.2" stroke="#161616" stroke-width="1.5" stroke-linecap="round" stroke-linejoin="round"/>
<path d="M10.4494 4.35156L6.60329 6.8129C6.42134 6.92945 6.21185 6.99116 5.99816 6.99116C5.78447 6.99116 5.57497 6.92945 5.39303 6.8129L1.54688 4.3521" stroke="#161616" stroke-width="1.5" stroke-linecap="round" stroke-linejoin="round"/>
</svg>
