<svg width="105" height="106" viewBox="0 0 105 106" fill="none" xmlns="http://www.w3.org/2000/svg">
<g filter="url(#filter0_f_3334_117156)">
<ellipse cx="52.5065" cy="71.1196" rx="33.7465" ry="14.6523" transform="rotate(7.30935 52.5065 71.1196)" fill="#6592FF" fill-opacity="0.5"/>
</g>
<g filter="url(#filter1_b_3334_117156)">
<rect x="43.6641" y="1.51562" width="48.4211" height="53.2632" rx="14.5263" transform="rotate(16 43.6641 1.51562)" fill="#163AF5"/>
<rect x="43.996" y="2.11454" width="47.4526" height="52.2947" rx="14.0421" transform="rotate(16 43.996 2.11454)" stroke="url(#paint0_linear_3334_117156)" stroke-width="0.968421" stroke-linecap="round" stroke-linejoin="round"/>
</g>
<g filter="url(#filter2_b_3334_117156)">
<rect x="12.8125" y="23.2402" width="56.6526" height="56.6526" rx="14.5263" fill="#6685FE" fill-opacity="0.3"/>
<rect x="13.1757" y="23.6034" width="55.9263" height="55.9263" rx="14.1632" stroke="url(#paint1_linear_3334_117156)" stroke-width="0.726316" stroke-linecap="round" stroke-linejoin="round"/>
</g>
<g filter="url(#filter3_b_3334_117156)">
<path fill-rule="evenodd" clip-rule="evenodd" d="M51.2635 42.6286C52.1682 43.3981 52.2917 44.7719 51.5394 45.6972L39.7281 60.2235C39.34 60.7007 38.7713 60.9861 38.1647 61.0079C37.5581 61.0296 36.9713 60.7858 36.5514 60.3375L31.3185 54.7505C30.5046 53.8815 30.5336 52.5022 31.3833 51.6697C32.233 50.8373 33.5817 50.867 34.3956 51.736L37.9777 55.5605L48.2631 42.9108C49.0155 41.9855 50.3588 41.8592 51.2635 42.6286Z" fill="white"/>
</g>
<defs>
<filter id="filter0_f_3334_117156" x="0.0962582" y="37.0767" width="104.819" height="68.0848" filterUnits="userSpaceOnUse" color-interpolation-filters="sRGB">
<feFlood flood-opacity="0" result="BackgroundImageFix"/>
<feBlend mode="normal" in="SourceGraphic" in2="BackgroundImageFix" result="shape"/>
<feGaussianBlur stdDeviation="9.44211" result="effect1_foregroundBlur_3334_117156"/>
</filter>
<filter id="filter1_b_3334_117156" x="25.1587" y="-2.31003" width="68.8779" height="72.1982" filterUnits="userSpaceOnUse" color-interpolation-filters="sRGB">
<feFlood flood-opacity="0" result="BackgroundImageFix"/>
<feGaussianBlur in="BackgroundImageFix" stdDeviation="3.63158"/>
<feComposite in2="SourceAlpha" operator="in" result="effect1_backgroundBlur_3334_117156"/>
<feBlend mode="normal" in="SourceGraphic" in2="effect1_backgroundBlur_3334_117156" result="shape"/>
</filter>
<filter id="filter2_b_3334_117156" x="4.58092" y="15.0087" width="73.1155" height="73.1155" filterUnits="userSpaceOnUse" color-interpolation-filters="sRGB">
<feFlood flood-opacity="0" result="BackgroundImageFix"/>
<feGaussianBlur in="BackgroundImageFix" stdDeviation="4.11579"/>
<feComposite in2="SourceAlpha" operator="in" result="effect1_backgroundBlur_3334_117156"/>
<feBlend mode="normal" in="SourceGraphic" in2="effect1_backgroundBlur_3334_117156" result="shape"/>
</filter>
<filter id="filter3_b_3334_117156" x="28.7897" y="40.1882" width="25.1784" height="22.7584" filterUnits="userSpaceOnUse" color-interpolation-filters="sRGB">
<feFlood flood-opacity="0" result="BackgroundImageFix"/>
<feGaussianBlur in="BackgroundImageFix" stdDeviation="0.968421"/>
<feComposite in2="SourceAlpha" operator="in" result="effect1_backgroundBlur_3334_117156"/>
<feBlend mode="normal" in="SourceGraphic" in2="effect1_backgroundBlur_3334_117156" result="shape"/>
</filter>
<linearGradient id="paint0_linear_3334_117156" x1="53.5963" y1="50.9569" x2="92.4452" y2="23.6558" gradientUnits="userSpaceOnUse">
<stop stop-color="white" stop-opacity="0.79"/>
<stop offset="1" stop-color="white" stop-opacity="0"/>
</linearGradient>
<linearGradient id="paint1_linear_3334_117156" x1="24.4332" y1="75.8278" x2="66.9357" y2="42.9723" gradientUnits="userSpaceOnUse">
<stop stop-color="white" stop-opacity="0.79"/>
<stop offset="1" stop-color="white" stop-opacity="0"/>
</linearGradient>
</defs>
</svg>
