<svg width="30" height="30" viewBox="0 0 30 30" fill="none" xmlns="http://www.w3.org/2000/svg">
<rect x="2.75" y="8.75" width="23.5" height="9.5" rx="1.25" stroke="black" stroke-width="1.5"/>
<path d="M9.3617 15.55C9.62718 15.55 9.83696 15.3249 9.81827 15.0601L9.77218 14.4072L10.4345 14.8169C10.6378 14.9426 10.9044 14.8807 11.0315 14.6783C11.1716 14.4554 11.0829 14.1601 10.8432 14.0512L10.1892 13.7539L10.8458 13.4506C11.0845 13.3404 11.1721 13.0454 11.0322 12.8227C10.9047 12.6197 10.6373 12.5577 10.4335 12.6838L9.77218 13.0928L9.81827 12.4399C9.83696 12.1751 9.62718 11.95 9.3617 11.95C9.09623 11.95 8.88644 12.1751 8.90513 12.4399L8.95123 13.0928L8.28995 12.6838C8.08609 12.5577 7.81868 12.6197 7.69119 12.8227C7.55131 13.0454 7.63888 13.3404 7.87763 13.4506L8.53422 13.7539L7.88019 14.0512C7.64049 14.1601 7.55182 14.4554 7.69186 14.6783C7.81898 14.8807 8.08561 14.9426 8.28887 14.8169L8.95123 14.4072L8.90513 15.0601C8.88644 15.3249 9.09623 15.55 9.3617 15.55ZM14.5 15.55C14.7655 15.55 14.9753 15.3249 14.9566 15.0601L14.9105 14.4072L15.5728 14.8169C15.7761 14.9426 16.0427 14.8807 16.1698 14.6783C16.3099 14.4554 16.2212 14.1601 15.9815 14.0512L15.3275 13.7539L15.9841 13.4506C16.2228 13.3404 16.3104 13.0454 16.1705 12.8227C16.043 12.6197 15.7756 12.5577 15.5718 12.6838L14.9105 13.0928L14.9566 12.4399C14.9753 12.1751 14.7655 11.95 14.5 11.95C14.2345 11.95 14.0247 12.1751 14.0434 12.4399L14.0895 13.0928L13.4282 12.6838C13.2244 12.5577 12.957 12.6197 12.8295 12.8227C12.6896 13.0454 12.7772 13.3404 13.0159 13.4506L13.6725 13.7539L13.0185 14.0512C12.7788 14.1601 12.6901 14.4554 12.8302 14.6783C12.9573 14.8807 13.2239 14.9426 13.4272 14.8169L14.0895 14.4072L14.0434 15.0601C14.0247 15.3249 14.2345 15.55 14.5 15.55ZM19.6383 15.55C19.9038 15.55 20.1136 15.3249 20.0949 15.0601L20.0488 14.4072L20.7111 14.8169C20.9144 14.9426 21.181 14.8807 21.3081 14.6783C21.4482 14.4554 21.3595 14.1601 21.1198 14.0512L20.4658 13.7539L21.1224 13.4506C21.3611 13.3404 21.4487 13.0454 21.3088 12.8227C21.1813 12.6197 20.9139 12.5577 20.7101 12.6838L20.0488 13.0928L20.0949 12.4399C20.1136 12.1751 19.9038 11.95 19.6383 11.95C19.3728 11.95 19.163 12.1751 19.1817 12.4399L19.2278 13.0928L18.5665 12.6838C18.3627 12.5577 18.0953 12.6197 17.9678 12.8227C17.8279 13.0454 17.9155 13.3404 18.1542 13.4506L18.8108 13.7539L18.1568 14.0512C17.9171 14.1601 17.8284 14.4554 17.9685 14.6783C18.0956 14.8807 18.3622 14.9426 18.5655 14.8169L19.2278 14.4072L19.1817 15.0601C19.163 15.3249 19.3728 15.55 19.6383 15.55Z" fill="black" stroke="black" stroke-width="0.1" stroke-linejoin="round"/>
</svg>
