<svg width="30" height="30" viewBox="0 0 30 30" fill="none" xmlns="http://www.w3.org/2000/svg">
<path d="M8.81371 24C7.55093 24.0014 6.32903 23.5457 5.36744 22.7146C4.40585 21.8836 3.76757 20.7318 3.56724 19.466C3.3669 18.2002 3.61762 16.9033 4.27438 15.8083C4.93115 14.7132 5.95092 13.8918 7.15056 13.4915C6.84234 11.8882 7.16089 10.226 8.03873 8.857C8.91658 7.48797 10.2848 6.51959 11.8536 6.15692C13.4225 5.79425 15.0688 6.06576 16.4439 6.91397C17.819 7.76217 18.8149 9.12046 19.2208 10.7012C19.8483 10.494 20.5204 10.4691 21.1612 10.6292C21.8019 10.7894 22.3858 11.1283 22.8469 11.6076C23.3079 12.0869 23.6278 12.6875 23.7703 13.3416C23.9129 13.9958 23.8724 14.6773 23.6535 15.3094C24.6192 15.6839 25.4252 16.3897 25.9319 17.3044C26.4386 18.2192 26.6139 19.2851 26.4274 20.3174C26.2409 21.3496 25.7044 22.283 24.911 22.9557C24.1176 23.6283 23.1172 23.9978 22.0836 24H8.81371Z" stroke="black" stroke-width="1.5" stroke-linecap="round" stroke-linejoin="round"/>
<path d="M11.25 17.1638L13.5937 19.3066L17.5 14.3066" stroke="black" stroke-width="1.5" stroke-linecap="round" stroke-linejoin="round"/>
</svg>
