<svg width="30" height="30" viewBox="0 0 30 30" fill="none" xmlns="http://www.w3.org/2000/svg">
<path d="M6.69531 21.575C7.67355 19.5427 8.18072 17.3036 8.17683 15.0345C8.17776 13.9312 8.41841 12.8422 8.88108 11.8475C9.34374 10.8529 10.0166 9.97795 10.8502 9.28711" stroke="#161616" stroke-width="1.5" stroke-linecap="round" stroke-linejoin="round"/>
<path d="M15.3062 15.0352C15.3111 18.7752 14.3909 22.4547 12.6328 25.7252" stroke="#161616" stroke-width="1.5" stroke-linecap="round" stroke-linejoin="round"/>
<path d="M11.7422 15.0338C11.7422 14.0582 12.1177 13.1226 12.7862 12.4328C13.4547 11.743 14.3614 11.3555 15.3067 11.3555C16.2521 11.3555 17.1588 11.743 17.8273 12.4328C18.4958 13.1226 18.8713 14.0582 18.8713 15.0338C18.8787 18.8255 18.0682 22.5713 16.4986 25.9997" stroke="#161616" stroke-width="1.5" stroke-linecap="round" stroke-linejoin="round"/>
<path d="M25.3985 21.472C25.7975 19.351 25.999 17.1955 26 15.0349C26 12.1083 24.8733 9.3015 22.8679 7.23205C20.8624 5.1626 18.1425 4 15.3063 4C12.4702 4 9.75021 5.1626 7.74476 7.23205C5.73931 9.3015 4.61266 12.1083 4.61266 15.0349C4.61585 16.2883 4.40856 17.5328 4 18.7132" stroke="#161616" stroke-width="1.5" stroke-linecap="round" stroke-linejoin="round"/>
<path d="M11.3834 18.7129C10.9986 20.647 10.318 22.5055 9.36719 24.2189" stroke="#161616" stroke-width="1.5" stroke-linecap="round" stroke-linejoin="round"/>
<path d="M14.4141 7.73521C14.7098 7.69853 15.0073 7.67934 15.3052 7.67773C17.196 7.67773 19.0093 8.4528 20.3462 9.83244C21.6832 11.2121 22.4343 13.0833 22.4343 15.0343C22.4333 16.264 22.3589 17.4924 22.2115 18.7127" stroke="#161616" stroke-width="1.5" stroke-linecap="round" stroke-linejoin="round"/>
<path d="M21.5329 22.3926C21.3659 23.0708 21.1765 23.749 20.9648 24.4042" stroke="#161616" stroke-width="1.5" stroke-linecap="round" stroke-linejoin="round"/>
</svg>
