<svg width="18" height="18" viewBox="0 0 18 18" fill="none" xmlns="http://www.w3.org/2000/svg">
<path d="M7.81177 2.89137C8.17401 2.13225 9.25457 2.13224 9.6168 2.89137L10.7024 5.16637C10.8482 5.47187 11.1386 5.68289 11.4742 5.72713L13.9733 6.05656C14.8072 6.16649 15.1411 7.19416 14.5311 7.77325L12.7029 9.50871C12.4574 9.74176 12.3465 10.0832 12.4081 10.416L12.8671 12.8946C13.0202 13.7217 12.146 14.3568 11.4068 13.9556L9.1913 12.7532C8.89379 12.5917 8.53478 12.5917 8.23727 12.7532L6.02181 13.9556C5.28256 14.3568 4.40836 13.7217 4.56151 12.8946L5.02047 10.416C5.08211 10.0832 4.97117 9.74176 4.72566 9.50871L2.89747 7.77325C2.28744 7.19416 2.62135 6.16649 3.45525 6.05656L5.95437 5.72713C6.28997 5.68289 6.58041 5.47187 6.72619 5.16637L7.81177 2.89137Z" fill="#FFB800"/>
</svg>
