<svg width="32" height="32" viewBox="0 0 32 32" fill="none" xmlns="http://www.w3.org/2000/svg">
<circle cx="16" cy="16" r="16" fill="#161616"/>
<g clip-path="url(#clip0_2184_51392)">
<path d="M18.7877 13.8311C18.7877 11.5416 16.9769 9.68575 14.7431 9.68575H12.7862V11.663H14.5277C15.6969 11.663 16.6446 12.6343 16.6446 13.8311C16.6446 15.0279 15.6969 15.9992 14.5277 15.9992H12.7862V17.9749L16.6446 22.3127H19.2154L15.3154 17.9292C17.2769 17.6438 18.7877 15.9204 18.7877 13.8295V13.8311ZM8.5 23.5L10.6431 22.3143V9.68575L8.5 8.5V23.5ZM21.3569 9.68575V22.3143L23.5 23.5V8.5L21.3569 9.68575Z" fill="white"/>
</g>
<defs>
<clipPath id="clip0_2184_51392">
<rect width="15" height="15" fill="white" transform="translate(8.5 8.5)"/>
</clipPath>
</defs>
</svg>
