<svg width="32" height="32" viewBox="0 0 32 32" fill="none" xmlns="http://www.w3.org/2000/svg">
<path d="M3.63672 6.62449C3.63672 6.1782 4.50501 5.81641 5.57611 5.81641H21.8185C22.8897 5.81641 23.7579 6.1782 23.7579 6.62449V12.2811C23.7579 12.7274 22.8897 13.0891 21.8185 13.0891H5.57611C4.50501 13.0891 3.63672 12.7274 3.63672 12.2811V6.62449Z" fill="#D4EFFF"/>
<path d="M3.63672 8.24065C3.63672 6.90178 4.8668 5.81641 6.38419 5.81641H25.6165C27.1339 5.81641 28.364 6.90178 28.364 8.24065V25.2103C28.364 26.5493 27.1339 27.6346 25.6165 27.6346H6.38419C4.8668 27.6346 3.63672 26.5493 3.63672 25.2103V8.24065Z" stroke="#161616" stroke-width="1.5" stroke-linecap="round" stroke-linejoin="round"/>
<path d="M3.63672 13.25H28.0004" stroke="#161616" stroke-width="1.5" stroke-linecap="round" stroke-linejoin="round"/>
<path d="M21.8203 2.9082V5.49406" stroke="#161616" stroke-width="1.5" stroke-linecap="round" stroke-linejoin="round"/>
<path d="M10.1836 2.9082V5.81729" stroke="#161616" stroke-width="1.5" stroke-linecap="round" stroke-linejoin="round"/>
<path d="M12.3633 20.3633H13.0906" stroke="#161616" stroke-width="1.5" stroke-linecap="round"/>
<path d="M18.918 20.2891H19.8545" stroke="#161616" stroke-width="1.5" stroke-linecap="round"/>
<path d="M17.7459 21.9823L16.6783 18.521C16.6391 18.3846 16.564 18.2732 16.4527 18.1922C16.3429 18.1124 16.2174 18.0725 16.0798 18.0725C15.94 18.0725 15.8136 18.1179 15.7045 18.2064C15.5962 18.2859 15.5213 18.3913 15.4817 18.5198C15.4817 18.5199 15.4817 18.5199 15.4817 18.52L14.4025 21.9824L13.3324 18.4231C13.3012 18.3098 13.2378 18.2183 13.1406 18.1572C13.0455 18.0974 12.9274 18.0725 12.7954 18.0725C12.6479 18.0725 12.5181 18.1318 12.4096 18.2403C12.3108 18.3392 12.2542 18.4563 12.2542 18.5891C12.2542 18.6852 12.2628 18.7703 12.2831 18.8413L12.283 18.8414L12.2847 18.8465L13.717 23.0569L13.717 23.0569L13.7175 23.0585C13.7664 23.1954 13.8542 23.3109 13.976 23.4046C14.1016 23.5012 14.2442 23.5507 14.4006 23.5507C14.5636 23.5507 14.7107 23.5021 14.8375 23.4046L14.8376 23.4047L14.8415 23.4014C14.9599 23.3012 15.0491 23.185 15.1059 23.0524L15.1063 23.0526L15.1095 23.0428L16.0798 20.0202L17.0502 23.0428L17.0502 23.0428L17.0505 23.0439C17.0988 23.1888 17.1862 23.3095 17.3098 23.4046L17.3097 23.4046L17.3129 23.4069C17.4451 23.5014 17.5905 23.5507 17.7467 23.5507C17.9097 23.5507 18.0568 23.5021 18.1836 23.4046C18.3055 23.3109 18.3932 23.1954 18.4421 23.0585L18.4421 23.0585L18.4426 23.0569L19.8749 18.8465L19.8751 18.8465L19.8765 18.8413C19.8968 18.7703 19.9054 18.6852 19.9054 18.5891C19.9054 18.4541 19.8429 18.3372 19.7377 18.2402C19.6368 18.131 19.5105 18.0725 19.3642 18.0725C19.2322 18.0725 19.1141 18.0974 19.0191 18.1572C18.9219 18.2183 18.8585 18.3097 18.8272 18.423L17.7459 21.9823Z" fill="#161616" stroke="#161616" stroke-width="0.218182"/>
</svg>
