<svg width="32" height="32" viewBox="0 0 32 32" fill="none" xmlns="http://www.w3.org/2000/svg">
<path d="M24 10.3667V6.94444C24 5.59441 23.0051 4.5 21.7778 4.5H6.22222C4.99492 4.5 4 5.59441 4 6.94444V24.0556C4 25.4056 4.99492 26.5 6.22222 26.5H15.2" stroke="#161616" stroke-width="1.5" stroke-linecap="round" stroke-linejoin="round"/>
<circle cx="23" cy="21.5" r="7.25" stroke="#161616" stroke-width="1.5"/>
<path d="M28.092 21.4991C28.092 24.3107 25.8127 26.59 23.0011 26.59C20.1894 26.59 17.9102 24.3107 17.9102 21.4991C17.9102 18.6875 20.1894 16.4082 23.0011 16.4082C25.8127 16.4082 28.092 18.6875 28.092 21.4991Z" fill="#D4EFFF"/>
<path d="M6.54688 10.1816H10.9105" stroke="#161616" stroke-width="1.5" stroke-linecap="round"/>
<path d="M20.3125 21.6133H20.8559" stroke="#161616" stroke-width="1.5" stroke-linecap="round"/>
<path d="M25.3984 21.5566H25.9803" stroke="#161616" stroke-width="1.5" stroke-linecap="round"/>
<path d="M25.9513 20.4881L25.9514 20.4881L25.9529 20.4829C25.969 20.4265 25.9756 20.3601 25.9756 20.2869C25.9756 20.1769 25.9245 20.0829 25.8422 20.0067C25.762 19.9203 25.6608 19.8733 25.5436 19.8733C25.4418 19.8733 25.3479 19.8925 25.271 19.9408C25.192 19.9904 25.1409 20.0647 25.1159 20.1551L24.3342 22.7281L23.5631 20.2281C23.5322 20.1208 23.4728 20.0323 23.3843 19.968C23.2974 19.9048 23.1979 19.8733 23.0895 19.8733C22.9788 19.8733 22.8785 19.9093 22.7922 19.9791C22.7068 20.0419 22.6475 20.1255 22.6162 20.2269C22.6162 20.227 22.6162 20.2271 22.6162 20.2271L21.8367 22.7281L21.0632 20.1552C21.0382 20.0648 20.987 19.9905 20.908 19.9408C20.8311 19.8925 20.7372 19.8733 20.6354 19.8733C20.517 19.8733 20.4132 19.9211 20.3276 20.0068C20.2496 20.0848 20.2034 20.179 20.2034 20.2869C20.2034 20.3601 20.2099 20.4265 20.2261 20.4829L20.2259 20.4829L20.2277 20.4881L21.2979 23.6341L21.2979 23.6341L21.2984 23.6357C21.3369 23.7435 21.4059 23.8339 21.5007 23.9069C21.5992 23.9826 21.7117 24.0217 21.8348 24.0217C21.9624 24.0217 22.0783 23.9836 22.1781 23.9069L22.1781 23.9069L22.182 23.9037C22.2734 23.8264 22.3428 23.7361 22.3871 23.6327L22.3876 23.6329L22.3907 23.6231L23.0895 21.4464L23.7883 23.6231L23.7883 23.6231L23.7886 23.6242C23.8265 23.7379 23.8952 23.8326 23.9917 23.9069L23.9916 23.9069L23.9948 23.9092C24.0979 23.9828 24.2121 24.0217 24.335 24.0217C24.4627 24.0217 24.5785 23.9836 24.6783 23.9069C24.7731 23.8339 24.842 23.7435 24.8806 23.6357L24.8806 23.6357L24.8811 23.6341L25.9513 20.4881Z" fill="#161616" stroke="#161616" stroke-width="0.218182"/>
<path d="M6.54688 14.5449H13.8196" stroke="#161616" stroke-width="1.5" stroke-linecap="round"/>
</svg>
