<svg width="32" height="32" viewBox="0 0 32 32" fill="none" xmlns="http://www.w3.org/2000/svg">
<path d="M24 10.3667V6.94444C24 5.59441 23.0051 4.5 21.7778 4.5H6.22222C4.99492 4.5 4 5.59441 4 6.94444V24.0556C4 25.4056 4.99492 26.5 6.22222 26.5H15.2" stroke="#161616" stroke-width="1.5" stroke-linecap="round" stroke-linejoin="round"/>
<circle cx="23" cy="21.5" r="7.25" stroke="#161616" stroke-width="1.5"/>
<path d="M28.092 21.4991C28.092 24.3107 25.8127 26.59 23.0011 26.59C20.1894 26.59 17.9102 24.3107 17.9102 21.4991C17.9102 18.6875 20.1894 16.4082 23.0011 16.4082C25.8127 16.4082 28.092 18.6875 28.092 21.4991Z" fill="#D4EFFF"/>
<path d="M6.54688 10.1816H10.9105" stroke="#161616" stroke-width="1.5" stroke-linecap="round"/>
<path d="M6.54688 14.5449H13.8196" stroke="#161616" stroke-width="1.5" stroke-linecap="round"/>
<path d="M20.6227 21.5347L22.3328 23.3485L25.4678 20.0555" stroke="#161616" stroke-width="1.5" stroke-linecap="round" stroke-linejoin="round"/>
</svg>
