<svg width="32" height="32" viewBox="0 0 32 32" fill="none" xmlns="http://www.w3.org/2000/svg">
<path d="M15.3636 19.0007C17.7736 19.0007 19.7273 17.047 19.7273 14.6371C19.7273 12.2271 17.7736 10.2734 15.3636 10.2734C12.9537 10.2734 11 12.2271 11 14.6371C11 17.047 12.9537 19.0007 15.3636 19.0007Z" fill="#D4EFFF" stroke="#161616" stroke-width="1.5" stroke-linecap="round" stroke-linejoin="round"/>
<path d="M8.08984 24.8182C8.64732 21.5207 11.6912 19 15.3626 19C19.034 19 22.0778 21.5207 22.6353 24.8182" stroke="#161616" stroke-width="1.5" stroke-linecap="round" stroke-linejoin="round"/>
<path d="M14.6346 21.1816C11.6975 21.1816 9.26238 23.0722 8.81641 25.5453C15.2164 29.618 19.2406 27.6059 20.4528 25.9089C20.0068 23.4358 17.5717 21.1816 14.6346 21.1816Z" fill="#D4EFFF"/>
<circle cx="15.7273" cy="15.7273" r="11.9773" stroke="#161616" stroke-width="1.5"/>
<path d="M24.4531 24.4551L28.8168 28.8187" stroke="black" stroke-width="1.5" stroke-linecap="round"/>
</svg>
