<svg width="32" height="32" viewBox="0 0 32 32" fill="none" xmlns="http://www.w3.org/2000/svg">
<path d="M12.0016 17V15C12.0016 14.1667 11.8016 12.2 11.0016 11C10.0016 9.5 9.83492 8 10.0016 6.5C10.1683 5 11.4017 2 15.0017 2" stroke="#161616" stroke-width="1.5"/>
<path d="M11 9H19" stroke="#161616" stroke-width="1.5" stroke-linecap="round" stroke-linejoin="round"/>
<path d="M17.9984 15C17.9984 14.1667 18.1984 12.2 18.9984 11C19.9984 9.5 20.1651 8 19.9984 6.5C19.8317 5 18.5983 2 14.9983 2" stroke="#161616" stroke-width="1.5" stroke-linecap="round" stroke-linejoin="round"/>
<path d="M4 23.8333C4 21.9924 5.49238 20.5 7.33333 20.5H23V21L20.1005 24.7279C19.7216 25.2151 19.139 25.5 18.5218 25.5H5.66667C4.74619 25.5 4 24.7538 4 23.8333Z" fill="#D4EFFF"/>
<path d="M17 25.5H15H6C4.89543 25.5 4 24.6046 4 23.5V21.5C4 19.2909 5.79086 17.5 8 17.5H23C24.6569 17.5 26 18.8431 26 20.5V20.5" stroke="#161616" stroke-width="1.5" stroke-linecap="round"/>
<path d="M6 26.5V26.5C6 28.1569 7.34315 29.5 9 29.5L14.8 29.5L17 29.5" stroke="#161616" stroke-width="1.5" stroke-linecap="round"/>
<circle cx="25" cy="26" r="5.25" stroke="#161616" stroke-width="1.5"/>
<path d="M23 26.1429L24.5 27.5L27 25" stroke="#161616" stroke-width="1.5" stroke-linecap="round" stroke-linejoin="round"/>
</svg>
