<svg width="32" height="32" viewBox="0 0 32 32" fill="none" xmlns="http://www.w3.org/2000/svg">
<path d="M22.6716 21.5996H4.55771L3.19922 25.4005L4.55771 27.4663H25.0659L22.6716 21.5996Z" fill="#D4EFFF"/>
<path d="M27.6146 24.2358C28.191 25.8327 27.0078 27.5176 25.3101 27.5176L6.34339 27.5176C4.72327 27.5176 3.54926 25.9732 3.98269 24.4121L5.45131 19.1227C5.55295 18.7566 5.88622 18.5033 6.26612 18.5033L25.5454 18.5033L27.6146 24.2358Z" stroke="#161616" stroke-width="1.5"/>
<path fill-rule="evenodd" clip-rule="evenodd" d="M7.7526 4.88281H23.6572C24.3015 4.88281 24.8238 5.40514 24.8238 6.04948V17.3038H24.799V18.8038H24.8238H26.3238V17.3038V6.04948C26.3238 4.57672 25.1299 3.38281 23.6572 3.38281H7.7526C6.27984 3.38281 5.08594 4.57672 5.08594 6.04948V16.4994H6.58594V6.04948C6.58594 5.40515 7.10827 4.88281 7.7526 4.88281Z" fill="#161616"/>
<path d="M19.1344 14.3336L17.2866 12.4859M17.2866 12.4859C17.7867 11.9858 18.0677 11.3075 18.0677 10.6002C18.0677 9.89301 17.7867 9.21473 17.2866 8.71464C16.7865 8.21454 16.1083 7.93359 15.401 7.93359C14.6938 7.93359 14.0155 8.21454 13.5154 8.71464C13.0153 9.21473 12.7344 9.89301 12.7344 10.6002C12.7344 11.3075 13.0153 11.9858 13.5154 12.4859C14.0155 12.9859 14.6938 13.2669 15.401 13.2669C16.1083 13.2669 16.7865 12.9859 17.2866 12.4859V12.4859Z" stroke="#161616" stroke-width="1.5" stroke-linecap="round" stroke-linejoin="round"/>
</svg>
