<svg width="32" height="32" viewBox="0 0 32 32" fill="none" xmlns="http://www.w3.org/2000/svg">
<path d="M6.41016 7.27148H22.4102V13.8169H13.6446L11.635 10.9078H6.41016V7.27148Z" fill="#D4EFFF"/>
<mask id="path-2-inside-1_3314_77234" fill="white">
<path fill-rule="evenodd" clip-rule="evenodd" d="M6.40922 10.1816H10.6705C11.6432 10.1816 12.5515 10.6678 13.091 11.4771L14.6516 13.818H25.3182C26.9248 13.818 28.2273 15.1204 28.2273 16.7271V24.7271C28.2273 26.3337 26.9248 27.6362 25.3182 27.6362H6.40909C4.80244 27.6362 3.5 26.3337 3.5 24.7271V13.818H3.50013V13.0907C3.50013 11.4841 4.80258 10.1816 6.40922 10.1816Z"/>
</mask>
<path d="M13.091 11.4771L14.3013 10.6702V10.6702L13.091 11.4771ZM14.6516 13.818L13.4414 14.6248L13.8732 15.2725H14.6516V13.818ZM3.5 13.818V12.3635H2.04545V13.818H3.5ZM3.50013 13.818V15.2725H4.95468V13.818H3.50013ZM10.6705 8.7271H6.40922V11.6362H10.6705V8.7271ZM14.3013 10.6702C13.492 9.45626 12.1295 8.7271 10.6705 8.7271V11.6362C11.1568 11.6362 11.611 11.8792 11.8808 12.2839L14.3013 10.6702ZM15.8619 13.0112L14.3013 10.6702L11.8808 12.2839L13.4414 14.6248L15.8619 13.0112ZM14.6516 15.2725H25.3182V12.3635H14.6516V15.2725ZM25.3182 15.2725C26.1215 15.2725 26.7727 15.9238 26.7727 16.7271H29.6818C29.6818 14.3171 27.7282 12.3635 25.3182 12.3635V15.2725ZM26.7727 16.7271V24.7271H29.6818V16.7271H26.7727ZM26.7727 24.7271C26.7727 25.5304 26.1215 26.1816 25.3182 26.1816V29.0907C27.7282 29.0907 29.6818 27.1371 29.6818 24.7271H26.7727ZM25.3182 26.1816H6.40909V29.0907H25.3182V26.1816ZM6.40909 26.1816C5.60577 26.1816 4.95455 25.5304 4.95455 24.7271H2.04545C2.04545 27.1371 3.99912 29.0907 6.40909 29.0907V26.1816ZM4.95455 24.7271V13.818H2.04545V24.7271H4.95455ZM3.5 15.2725H3.50013V12.3635H3.5V15.2725ZM2.04559 13.0907V13.818H4.95468V13.0907H2.04559ZM6.40922 8.7271C3.99926 8.7271 2.04559 10.6808 2.04559 13.0907H4.95468C4.95468 12.2874 5.6059 11.6362 6.40922 11.6362V8.7271Z" fill="black" mask="url(#path-2-inside-1_3314_77234)"/>
<path d="M25.3192 14.1818V5.45455C25.3192 4.65122 24.668 4 23.8647 4H7.8647C7.06138 4 6.41016 4.65122 6.41016 5.45455V11.2727" stroke="#161616" stroke-width="1.5"/>
<path d="M18.0469 22.5449C19.9863 22.5449 23.8651 22.5449 23.8651 22.5449" stroke="#161616" stroke-width="1.5" stroke-linecap="round"/>
</svg>
