<svg width="60" height="60" viewBox="0 0 60 60" fill="none" xmlns="http://www.w3.org/2000/svg">
<path d="M35.5 14C31.0973 18.3793 25.2338 20.7812 19.1628 20.6925C18.3905 23.1568 17.998 25.7342 18 28.3279C18 39.7169 25.4356 49.2851 35.5 52C45.5644 49.2872 53 39.7189 53 28.3299C53 25.6619 52.5917 23.0937 51.8372 20.6904H51.5417C45.3272 20.6904 39.6806 18.1487 35.5 14Z" fill="#D4EFFF"/>
<path d="M30 8C24.9683 13.0708 18.2673 15.8519 11.3289 15.7492C10.4463 18.6026 9.99772 21.587 10 24.5902C10 37.7775 18.4978 48.8565 30 52C41.5022 48.8588 50 37.7798 50 24.5926C50 21.5033 49.5333 18.5295 48.6711 15.7468H48.3333C41.2311 15.7468 34.7778 12.8037 30 8Z" stroke="#161616" stroke-width="2" stroke-linecap="round" stroke-linejoin="round"/>
<path d="M30 24.375V35.625" stroke="#161616" stroke-width="2" stroke-linecap="round"/>
<path d="M35.625 30L24.375 30" stroke="#161616" stroke-width="2" stroke-linecap="round"/>
</svg>
