<svg width="60" height="60" viewBox="0 0 60 60" fill="none" xmlns="http://www.w3.org/2000/svg">
<path d="M23.0102 47C20.869 47.0024 18.7971 46.2175 17.1665 44.7863C15.536 43.3552 14.4537 41.3714 14.114 39.1914C13.7743 37.0114 14.1994 34.7779 15.3131 32.892C16.4267 31.0061 18.1559 29.5915 20.1901 28.902C19.6675 26.1408 20.2076 23.2781 21.6961 20.9204C23.1846 18.5626 25.5047 16.8949 28.1649 16.2703C30.8251 15.6457 33.6166 16.1133 35.9483 17.5741C38.28 19.0349 38 19.5 39.5 21.5C40.5641 21.1431 41.7037 21.1002 42.7902 21.376C43.8767 21.6519 45.7182 23.1745 46.5 24C47.2818 24.8255 47.2583 27.3734 47.5 28.5C47.7417 29.6266 47.5 30.5 48.3714 31C50.0088 31.6449 51.1776 33.8933 52.0367 35.4687C52.8958 37.0441 53.1931 38.8799 52.8769 40.6577C52.5607 42.4355 51.651 44.043 50.3056 45.2015C48.9602 46.3599 47.264 46.9962 45.5113 47H23.0102Z" fill="#D4EFFF"/>
<path d="M17.6274 48C15.1019 48.0028 12.6581 47.0913 10.7349 45.4293C8.8117 43.7673 7.53515 41.4636 7.13447 38.932C6.7338 36.4003 7.23525 33.8066 8.54877 31.6165C9.86229 29.4265 11.9018 27.7836 14.3011 26.983C13.6847 23.7764 14.3218 20.452 16.0775 17.714C17.8332 14.9759 20.5696 13.0392 23.7073 12.3138C26.845 11.5885 30.1376 12.1315 32.8878 13.8279C35.638 15.5243 37.6299 18.2409 38.4416 21.4024C39.6967 20.988 41.0409 20.9381 42.3224 21.2585C43.6039 21.5788 44.7716 22.2565 45.6937 23.2151C46.6158 24.1737 47.2556 25.375 47.5406 26.6833C47.8257 27.9915 47.7448 29.3547 47.3071 30.6188C49.2383 31.3677 50.8505 32.7794 51.8638 34.6089C52.8771 36.4384 53.2277 38.5703 52.8548 40.6347C52.4818 42.6992 51.4088 44.5661 49.822 45.9114C48.2351 47.2567 46.2345 47.9956 44.1671 48H17.6274Z" stroke="#161616" stroke-width="2" stroke-linecap="round" stroke-linejoin="round"/>
<path d="M22.5 34.3276L27.1875 38.6133L35 28.6133" stroke="#161616" stroke-width="2" stroke-linecap="round" stroke-linejoin="round"/>
</svg>
