<svg width="83" height="75" viewBox="0 0 83 75" fill="none" xmlns="http://www.w3.org/2000/svg">
<g filter="url(#filter0_f_2751_55302)">
<ellipse cx="22.0086" cy="9.55584" rx="22.0086" ry="9.55584" transform="matrix(-0.991874 0.127226 0.127226 0.991874 62.1328 32.5273)" fill="#6592FF" fill-opacity="0.5"/>
</g>
<g clip-path="url(#clip0_2751_55302)">
<path d="M46.3729 26.7398L26.9688 7.6092C24.9256 5.5577 21.5793 5.48891 19.5286 7.48042C18.8134 8.14564 18.329 9.01471 18.1084 9.93224L11.46 36.1325C11.1276 38.9619 13.2141 41.5735 16.1047 41.9342C16.6789 41.9921 17.2691 41.9715 17.8333 41.8587L44.0251 34.9409C45.3468 34.5156 46.4154 33.6047 47.0469 32.3728C47.6774 31.1375 47.7762 29.7224 47.3277 28.412C47.1306 27.8524 46.8501 27.3378 46.3729 26.7398Z" fill="url(#paint0_linear_2751_55302)"/>
<g filter="url(#filter1_b_2751_55302)">
<path d="M66.3739 44.5502L48.5654 14.3226C46.7037 11.0935 42.4659 9.90639 39.1345 11.7132C37.9831 12.3068 37.0523 13.2304 36.4399 14.3013L18.5089 44.7639C17.0637 48.1805 18.7784 52.1219 22.3303 53.5228C23.0407 53.7839 23.8 53.9525 24.5594 53.9976H60.4214C62.2586 53.9026 63.9488 53.1191 65.1981 51.7919C66.4474 50.4599 67.0842 48.729 66.9863 46.9482C66.9373 46.1861 66.7658 45.4524 66.3739 44.5502Z" fill="#6685FE" fill-opacity="0.3"/>
<path d="M48.3488 14.4475L48.35 14.4495L66.1506 44.6638C66.5277 45.5352 66.6899 46.2368 66.7367 46.9631C66.8305 48.6738 66.2191 50.3378 65.0157 51.6209C63.8122 52.8993 62.1853 53.6545 60.4148 53.7476H24.5669C23.8374 53.7035 23.1057 53.5412 22.4194 53.2892C18.9991 51.9386 17.3565 48.1534 18.7328 44.8763L36.6554 14.4281L36.6554 14.4281L36.6569 14.4254C37.2464 13.3947 38.1424 12.506 39.249 11.9355L39.249 11.9355L39.2536 11.933C42.4678 10.1898 46.5558 11.3376 48.3488 14.4475Z" stroke="url(#paint1_linear_2751_55302)" stroke-width="0.5" stroke-linecap="round" stroke-linejoin="round"/>
</g>
<g filter="url(#filter2_b_2751_55302)">
<mask id="path-5-inside-1_2751_55302" fill="white">
<path fill-rule="evenodd" clip-rule="evenodd" d="M42.5065 39.2708C43.6585 39.2708 44.5945 38.1848 44.5945 36.8849V29.2233C44.5945 27.9207 43.6585 26.8672 42.5065 26.8672C41.3545 26.8672 40.3945 27.9207 40.3945 29.2233V36.8849C40.3945 38.1848 41.3545 39.2708 42.5065 39.2708ZM40.3945 43.5246C40.3945 44.6814 41.3545 45.6497 42.5065 45.6497C43.6585 45.6497 44.5945 44.6814 44.5945 43.4981C44.5945 42.3413 43.6585 41.3971 42.5065 41.3971C41.3545 41.3971 40.3945 42.363 40.3945 43.5246Z"/>
</mask>
<path fill-rule="evenodd" clip-rule="evenodd" d="M42.5065 39.2708C43.6585 39.2708 44.5945 38.1848 44.5945 36.8849V29.2233C44.5945 27.9207 43.6585 26.8672 42.5065 26.8672C41.3545 26.8672 40.3945 27.9207 40.3945 29.2233V36.8849C40.3945 38.1848 41.3545 39.2708 42.5065 39.2708ZM40.3945 43.5246C40.3945 44.6814 41.3545 45.6497 42.5065 45.6497C43.6585 45.6497 44.5945 44.6814 44.5945 43.4981C44.5945 42.3413 43.6585 41.3971 42.5065 41.3971C41.3545 41.3971 40.3945 42.363 40.3945 43.5246Z" fill="white"/>
<path d="M44.3597 36.8849C44.3597 38.0866 43.4995 39.036 42.5065 39.036V39.5056C43.8176 39.5056 44.8293 38.283 44.8293 36.8849H44.3597ZM44.3597 29.2233V36.8849H44.8293V29.2233H44.3597ZM42.5065 27.102C43.5032 27.102 44.3597 28.0231 44.3597 29.2233H44.8293C44.8293 27.8183 43.8139 26.6324 42.5065 26.6324V27.102ZM40.6293 29.2233C40.6293 28.0267 41.5066 27.102 42.5065 27.102V26.6324C41.2024 26.6324 40.1597 27.8146 40.1597 29.2233H40.6293ZM40.6293 36.8849V29.2233H40.1597V36.8849H40.6293ZM42.5065 39.036C41.5104 39.036 40.6293 38.083 40.6293 36.8849H40.1597C40.1597 38.2866 41.1987 39.5056 42.5065 39.5056V39.036ZM42.5065 45.415C41.4857 45.415 40.6293 44.5532 40.6293 43.5246H40.1597C40.1597 44.8095 41.2233 45.8845 42.5065 45.8845V45.415ZM44.3597 43.4981C44.3597 44.5587 43.522 45.415 42.5065 45.415V45.8845C43.7951 45.8845 44.8293 44.8041 44.8293 43.4981H44.3597ZM42.5065 41.6319C43.5273 41.6319 44.3597 42.4694 44.3597 43.4981H44.8293C44.8293 42.2132 43.7897 41.1623 42.5065 41.1623V41.6319ZM40.6293 43.5246C40.6293 42.4912 41.4857 41.6319 42.5065 41.6319V41.1623C41.2233 41.1623 40.1597 42.2349 40.1597 43.5246H40.6293Z" fill="url(#paint2_linear_2751_55302)" mask="url(#path-5-inside-1_2751_55302)"/>
</g>
</g>
<defs>
<filter id="filter0_f_2751_55302" x="0.15625" y="15.4199" width="82.7266" height="58.7715" filterUnits="userSpaceOnUse" color-interpolation-filters="sRGB">
<feFlood flood-opacity="0" result="BackgroundImageFix"/>
<feBlend mode="normal" in="SourceGraphic" in2="BackgroundImageFix" result="shape"/>
<feGaussianBlur stdDeviation="9.75" result="effect1_foregroundBlur_2751_55302"/>
</filter>
<filter id="filter1_b_2751_55302" x="5.99609" y="-1.13281" width="73" height="67.1309" filterUnits="userSpaceOnUse" color-interpolation-filters="sRGB">
<feFlood flood-opacity="0" result="BackgroundImageFix"/>
<feGaussianBlur in="BackgroundImageFix" stdDeviation="6"/>
<feComposite in2="SourceAlpha" operator="in" result="effect1_backgroundBlur_2751_55302"/>
<feBlend mode="normal" in="SourceGraphic" in2="effect1_backgroundBlur_2751_55302" result="shape"/>
</filter>
<filter id="filter2_b_2751_55302" x="31.5902" y="18.0628" width="21.8079" height="36.3919" filterUnits="userSpaceOnUse" color-interpolation-filters="sRGB">
<feFlood flood-opacity="0" result="BackgroundImageFix"/>
<feGaussianBlur in="BackgroundImageFix" stdDeviation="4.40217"/>
<feComposite in2="SourceAlpha" operator="in" result="effect1_backgroundBlur_2751_55302"/>
<feBlend mode="normal" in="SourceGraphic" in2="effect1_backgroundBlur_2751_55302" result="shape"/>
</filter>
<linearGradient id="paint0_linear_2751_55302" x1="43.5687" y1="2.91601" x2="4.102" y2="36.8746" gradientUnits="userSpaceOnUse">
<stop stop-color="#6592FF"/>
<stop offset="1" stop-color="#163AF5"/>
</linearGradient>
<linearGradient id="paint1_linear_2751_55302" x1="25.7961" y1="15.8919" x2="52.3755" y2="53.2912" gradientUnits="userSpaceOnUse">
<stop stop-color="white" stop-opacity="0.25"/>
<stop offset="1" stop-color="white" stop-opacity="0"/>
</linearGradient>
<linearGradient id="paint2_linear_2751_55302" x1="41.0631" y1="29.0554" x2="47.3683" y2="30.8016" gradientUnits="userSpaceOnUse">
<stop stop-color="white" stop-opacity="0.25"/>
<stop offset="1" stop-color="white" stop-opacity="0"/>
</linearGradient>
<clipPath id="clip0_2751_55302">
<rect width="56" height="48" fill="white" transform="translate(11 6)"/>
</clipPath>
</defs>
</svg>
