<svg width="60" height="60" viewBox="0 0 60 60" fill="none" xmlns="http://www.w3.org/2000/svg">
<rect x="4" y="3" width="38" height="38" rx="19" fill="#D4EFFF"/>
<path d="M13.3906 43.1499C15.3471 39.0854 16.3614 34.6073 16.3537 30.0689C16.3555 27.8624 16.8368 25.6843 17.7622 23.695C18.6875 21.7058 20.0333 19.9559 21.7005 18.5742" stroke="#161616" stroke-width="2" stroke-linecap="round" stroke-linejoin="round"/>
<path d="M30.6125 30.0684C30.6221 37.5485 28.7818 44.9074 25.2656 51.4485" stroke="#161616" stroke-width="2" stroke-linecap="round" stroke-linejoin="round"/>
<path d="M23.4844 30.0695C23.4844 28.1184 24.2355 26.2472 25.5724 24.8676C26.9094 23.488 28.7227 22.7129 30.6135 22.7129C32.5042 22.7129 34.3176 23.488 35.6545 24.8676C36.9915 26.2472 37.7426 28.1184 37.7426 30.0695C37.7573 37.6529 36.1364 45.1446 32.9973 52.0014" stroke="#161616" stroke-width="2" stroke-linecap="round" stroke-linejoin="round"/>
<path d="M50.797 42.9439C51.5951 38.702 51.9979 34.391 52 30.0698C52 24.2166 49.7467 18.603 45.7358 14.4641C41.7249 10.3252 36.2849 8 30.6127 8C24.9404 8 19.5004 10.3252 15.4895 14.4641C11.4786 18.603 9.22532 24.2166 9.22532 30.0698C9.23169 32.5767 8.81712 35.0657 8 37.4265" stroke="#161616" stroke-width="2" stroke-linecap="round" stroke-linejoin="round"/>
<path d="M22.7707 37.4258C22.0011 41.2939 20.64 45.011 18.7383 48.4377" stroke="#161616" stroke-width="2" stroke-linecap="round" stroke-linejoin="round"/>
<path d="M28.832 15.4704C29.4235 15.3971 30.0186 15.3587 30.6143 15.3555C34.3958 15.3555 38.0225 16.9056 40.6964 19.6649C43.3703 22.4241 44.8725 26.1665 44.8725 30.0687C44.8705 32.528 44.7217 34.9849 44.427 37.4253" stroke="#161616" stroke-width="2" stroke-linecap="round" stroke-linejoin="round"/>
<path d="M43.0659 44.7852C42.7317 46.1415 42.353 47.4979 41.9297 48.8083" stroke="#161616" stroke-width="2" stroke-linecap="round" stroke-linejoin="round"/>
</svg>
