<svg width="42" height="42" viewBox="0 0 42 42" fill="none" xmlns="http://www.w3.org/2000/svg">
<g filter="url(#filter0_i_2095_71437)">
<path d="M21.0504 41.625C-10.1698 41.625 6.28598 7.92859 21.0504 7.92859C35.5121 7.92859 52.4571 41.625 21.0504 41.625Z" fill="url(#paint0_linear_2095_71437)"/>
</g>
<g filter="url(#filter1_b_2095_71437)">
<path d="M21.5031 2.46423C8.69487 2.46423 15.4459 14.3035 21.5031 14.3035C27.4362 14.3035 34.388 2.46423 21.5031 2.46423Z" fill="#D6FFCF" style="mix-blend-mode:multiply"/>
<path d="M21.5031 2.46423C8.69487 2.46423 15.4459 14.3035 21.5031 14.3035C27.4362 14.3035 34.388 2.46423 21.5031 2.46423Z" stroke="white" stroke-opacity="0.273622"/>
</g>
<path d="M19.678 23.4107C19.678 24.4166 18.8625 25.2321 17.8566 25.2321C16.8506 25.2321 16.0352 24.4166 16.0352 23.4107C16.0352 22.4047 16.8506 21.5892 17.8566 21.5892C18.8625 21.5892 19.678 22.4047 19.678 23.4107Z" stroke="white" stroke-width="2" stroke-linecap="round" stroke-linejoin="round"/>
<path d="M26.9632 30.6964C26.9632 31.7024 26.1477 32.5179 25.1417 32.5179C24.1358 32.5179 23.3203 31.7024 23.3203 30.6964C23.3203 29.6905 24.1358 28.875 25.1417 28.875C26.1477 28.875 26.9632 29.6905 26.9632 30.6964Z" stroke="white" stroke-width="2" stroke-linecap="round" stroke-linejoin="round"/>
<path d="M16.6406 31.9109L26.3549 22.1967" stroke="white" stroke-width="2" stroke-linecap="round" stroke-linejoin="round"/>
<defs>
<filter id="filter0_i_2095_71437" x="3.28516" y="7.92859" width="41.5179" height="39.6964" filterUnits="userSpaceOnUse" color-interpolation-filters="sRGB">
<feFlood flood-opacity="0" result="BackgroundImageFix"/>
<feBlend mode="normal" in="SourceGraphic" in2="BackgroundImageFix" result="shape"/>
<feColorMatrix in="SourceAlpha" type="matrix" values="0 0 0 0 0 0 0 0 0 0 0 0 0 0 0 0 0 0 127 0" result="hardAlpha"/>
<feOffset dx="6" dy="6"/>
<feGaussianBlur stdDeviation="3"/>
<feComposite in2="hardAlpha" operator="arithmetic" k2="-1" k3="1"/>
<feColorMatrix type="matrix" values="0 0 0 0 0.920283 0 0 0 0 0.864055 0 0 0 0 1 0 0 0 0.45593 0"/>
<feBlend mode="normal" in2="shape" result="effect1_innerShadow_2095_71437"/>
</filter>
<filter id="filter1_b_2095_71437" x="-28.7808" y="-40.5319" width="100.563" height="97.8316" filterUnits="userSpaceOnUse" color-interpolation-filters="sRGB">
<feFlood flood-opacity="0" result="BackgroundImageFix"/>
<feGaussianBlur in="BackgroundImageFix" stdDeviation="21.2481"/>
<feComposite in2="SourceAlpha" operator="in" result="effect1_backgroundBlur_2095_71437"/>
<feBlend mode="normal" in="SourceGraphic" in2="effect1_backgroundBlur_2095_71437" result="shape"/>
</filter>
<linearGradient id="paint0_linear_2095_71437" x1="-23.9531" y1="35.3485" x2="21.987" y2="70.0386" gradientUnits="userSpaceOnUse">
<stop stop-color="#64FA3E"/>
<stop offset="1" stop-color="#30CEB2"/>
</linearGradient>
</defs>
</svg>
