<svg width="43" height="42" viewBox="0 0 43 42" fill="none" xmlns="http://www.w3.org/2000/svg">
<g filter="url(#filter0_bi_2095_71433)">
<path fill-rule="evenodd" clip-rule="evenodd" d="M33.3111 10.8581C33.3111 7.44311 30.2827 4.82213 26.903 5.31219L5.25278 8.45155C3.60066 8.9211 2.24 10.736 2.24 12.4921V14.0618C2.24 12.2867 3.79554 10.8581 5.72013 10.8581H16.9598H33.3111Z" fill="#A4D4F8" style="mix-blend-mode:multiply"/>
<path fill-rule="evenodd" clip-rule="evenodd" d="M33.3111 10.8581C33.3111 7.44311 30.2827 4.82213 26.903 5.31219L5.25278 8.45155C3.60066 8.9211 2.24 10.736 2.24 12.4921V14.0618C2.24 12.2867 3.79554 10.8581 5.72013 10.8581H16.9598H33.3111Z" stroke="white" stroke-opacity="0.273622" stroke-width="1.2768"/>
</g>
<g filter="url(#filter1_i_2095_71433)">
<ellipse cx="26.838" cy="14.707" rx="13.5859" ry="13.558" transform="rotate(155 26.838 14.707)" fill="url(#paint0_linear_2095_71433)"/>
</g>
<ellipse cx="26.838" cy="14.707" rx="13.5859" ry="13.558" transform="rotate(155 26.838 14.707)" fill="url(#paint1_linear_2095_71433)"/>
<mask id="mask0_2095_71433" style="mask-type:luminance" maskUnits="userSpaceOnUse" x="13" y="1" width="28" height="28">
<ellipse cx="26.838" cy="14.707" rx="13.5859" ry="13.558" transform="rotate(155 26.838 14.707)" fill="white"/>
</mask>
<g mask="url(#mask0_2095_71433)">
<g opacity="0.370607" filter="url(#filter2_f_2095_71433)">
<path d="M13.568 10.8355H34.9294C34.9294 10.8355 37.8423 10.8355 37.8423 13.7391C37.8423 16.6428 37.8423 22.7727 37.8423 22.7727" stroke="#134AD7" stroke-width="7.6608" style="mix-blend-mode:multiply"/>
</g>
</g>
<g filter="url(#filter3_b_2095_71433)">
<path fill-rule="evenodd" clip-rule="evenodd" d="M37.8423 14.5221V37.3889C37.8423 39.4316 36.2902 41.0755 34.3906 41.0755H5.71063C3.79043 41.0755 2.24 39.4316 2.24 37.3889V14.5221C2.24 12.4794 3.79043 10.8355 5.71063 10.8355H34.3906C36.2902 10.8355 37.8423 12.4794 37.8423 14.5221Z" fill="#88C1EA" fill-opacity="0.5"/>
</g>
<g filter="url(#filter4_d_2095_71433)">
<rect x="28.5357" y="21.0984" width="6.16" height="6.16" rx="3.08" fill="white"/>
</g>
<defs>
<filter id="filter0_bi_2095_71433" x="-33.1054" y="-30.0924" width="101.762" height="78.8612" filterUnits="userSpaceOnUse" color-interpolation-filters="sRGB">
<feFlood flood-opacity="0" result="BackgroundImageFix"/>
<feGaussianBlur in="BackgroundImageFix" stdDeviation="17.3535"/>
<feComposite in2="SourceAlpha" operator="in" result="effect1_backgroundBlur_2095_71433"/>
<feBlend mode="normal" in="SourceGraphic" in2="effect1_backgroundBlur_2095_71433" result="shape"/>
<feColorMatrix in="SourceAlpha" type="matrix" values="0 0 0 0 0 0 0 0 0 0 0 0 0 0 0 0 0 0 127 0" result="hardAlpha"/>
<feOffset dy="-7"/>
<feGaussianBlur stdDeviation="3.5"/>
<feComposite in2="hardAlpha" operator="arithmetic" k2="-1" k3="1"/>
<feColorMatrix type="matrix" values="0 0 0 0 0.84953 0 0 0 0 0.918746 0 0 0 0 1 0 0 0 0.302557 0"/>
<feBlend mode="normal" in2="shape" result="effect2_innerShadow_2095_71433"/>
</filter>
<filter id="filter1_i_2095_71433" x="13.2538" y="1.14081" width="32.1683" height="32.1325" filterUnits="userSpaceOnUse" color-interpolation-filters="sRGB">
<feFlood flood-opacity="0" result="BackgroundImageFix"/>
<feBlend mode="normal" in="SourceGraphic" in2="BackgroundImageFix" result="shape"/>
<feColorMatrix in="SourceAlpha" type="matrix" values="0 0 0 0 0 0 0 0 0 0 0 0 0 0 0 0 0 0 127 0" result="hardAlpha"/>
<feOffset dx="5" dy="5"/>
<feGaussianBlur stdDeviation="2.5"/>
<feComposite in2="hardAlpha" operator="arithmetic" k2="-1" k3="1"/>
<feColorMatrix type="matrix" values="0 0 0 0 1 0 0 0 0 0.943655 0 0 0 0 0.440116 0 0 0 0.45593 0"/>
<feBlend mode="normal" in2="shape" result="effect1_innerShadow_2095_71433"/>
</filter>
<filter id="filter2_f_2095_71433" x="-0.3148" y="-6.87771" width="55.8703" height="43.5332" filterUnits="userSpaceOnUse" color-interpolation-filters="sRGB">
<feFlood flood-opacity="0" result="BackgroundImageFix"/>
<feBlend mode="normal" in="SourceGraphic" in2="BackgroundImageFix" result="shape"/>
<feGaussianBlur stdDeviation="6.9414" result="effect1_foregroundBlur_2095_71433"/>
</filter>
<filter id="filter3_b_2095_71433" x="-1.76" y="6.83551" width="43.6023" height="38.24" filterUnits="userSpaceOnUse" color-interpolation-filters="sRGB">
<feFlood flood-opacity="0" result="BackgroundImageFix"/>
<feGaussianBlur in="BackgroundImageFix" stdDeviation="2"/>
<feComposite in2="SourceAlpha" operator="in" result="effect1_backgroundBlur_2095_71433"/>
<feBlend mode="normal" in="SourceGraphic" in2="effect1_backgroundBlur_2095_71433" result="shape"/>
</filter>
<filter id="filter4_d_2095_71433" x="22.5357" y="21.0984" width="20.16" height="20.16" filterUnits="userSpaceOnUse" color-interpolation-filters="sRGB">
<feFlood flood-opacity="0" result="BackgroundImageFix"/>
<feColorMatrix in="SourceAlpha" type="matrix" values="0 0 0 0 0 0 0 0 0 0 0 0 0 0 0 0 0 0 127 0" result="hardAlpha"/>
<feOffset dx="1" dy="7"/>
<feGaussianBlur stdDeviation="3.5"/>
<feColorMatrix type="matrix" values="0 0 0 0 0.176471 0 0 0 0 0.602667 0 0 0 0 0.996078 0 0 0 1 0"/>
<feBlend mode="normal" in2="BackgroundImageFix" result="effect1_dropShadow_2095_71433"/>
<feBlend mode="normal" in="SourceGraphic" in2="effect1_dropShadow_2095_71433" result="shape"/>
</filter>
<linearGradient id="paint0_linear_2095_71433" x1="-5.95668" y1="23.4733" x2="29.2632" y2="48.7563" gradientUnits="userSpaceOnUse">
<stop stop-color="#FFE600"/>
<stop offset="1" stop-color="#FFD906"/>
</linearGradient>
<linearGradient id="paint1_linear_2095_71433" x1="13.2521" y1="15.8063" x2="40.4238" y2="15.8063" gradientUnits="userSpaceOnUse">
<stop stop-color="#2763F6"/>
<stop offset="1" stop-color="#279FF6"/>
</linearGradient>
</defs>
</svg>
