<svg width="80" height="80" viewBox="0 0 80 80" fill="none" xmlns="http://www.w3.org/2000/svg">
<g clip-path="url(#clip0_2322_49255)">
<path d="M40 40C40.0136 50.1678 37.4321 60.171 32.5 69.0625" stroke="#B6BCCA" stroke-width="4" stroke-linecap="round" stroke-linejoin="round"/>
<path d="M30 40C30 37.3478 31.0536 34.8043 32.9289 32.9289C34.8043 31.0536 37.3478 30 40 30C42.6522 30 45.1957 31.0536 47.0711 32.9289C48.9464 34.8043 50 37.3478 50 40C50.0206 50.3083 47.7469 60.4919 43.3437 69.8125" stroke="#B6BCCA" stroke-width="4" stroke-linecap="round" stroke-linejoin="round"/>
<path d="M68.3125 57.5C69.432 51.7339 69.9971 45.8738 70 40C70 32.0435 66.8393 24.4129 61.2132 18.7868C55.5871 13.1607 47.9565 10 40 10C32.0435 10 24.4129 13.1607 18.7868 18.7868C13.1607 24.4129 10 32.0435 10 40C10.0089 43.4076 9.42743 46.791 8.28125 50" stroke="#B6BCCA" stroke-width="4" stroke-linecap="round" stroke-linejoin="round"/>
<path d="M29 50C27.9206 55.258 26.0113 60.3108 23.3438 64.9687" stroke="#B6BCCA" stroke-width="4" stroke-linecap="round" stroke-linejoin="round"/>
<path fill-rule="evenodd" clip-rule="evenodd" d="M40.0004 18C45.8352 18 51.431 20.3179 55.5568 24.4437C59.6826 28.5695 62.0004 34.1653 62.0004 40V40.0018C61.9975 43.4269 61.7836 46.8485 61.3601 50.2473C61.2235 51.3434 60.2242 52.1213 59.1281 51.9847C58.032 51.8481 57.2542 50.8488 57.3908 49.7527C57.794 46.5168 57.9976 43.2592 58.0004 39.9983C58 35.225 56.1036 30.6474 52.7284 27.2721C49.3539 23.8977 44.7777 22.0014 40.0056 22C39.2481 22.0042 38.4913 22.0516 37.7391 22.142C36.6424 22.2738 35.6466 21.4916 35.5147 20.395C35.3829 19.2983 36.1651 18.3024 37.2618 18.1706C38.1672 18.0617 39.0781 18.0048 39.99 18.0001L40.0004 18ZM29.0598 22.7477C29.7515 23.6089 29.614 24.8678 28.7528 25.5594C26.6473 27.2503 24.9477 29.3918 23.7792 31.8263C22.611 34.26 22.0032 36.9247 22.0004 39.6242C22.0115 46.1022 20.5172 52.4942 17.6354 58.296C17.144 59.2852 15.9437 59.6889 14.9545 59.1975C13.9652 58.7061 13.5616 57.5058 14.053 56.5166C16.6595 51.2691 18.0108 45.4877 18.0004 39.6286L18.0004 39.6233C18.0033 36.3248 18.7457 33.069 20.1731 30.0954C21.6004 27.1218 23.6763 24.506 26.2481 22.4407C27.1093 21.749 28.3682 21.8865 29.0598 22.7477ZM59.4075 60.4928C59.6797 59.4223 59.0325 58.3339 57.962 58.0617C56.8915 57.7895 55.803 58.4367 55.5309 59.5072C55.0723 61.3108 54.5544 63.1073 53.9781 64.8363C53.6288 65.8842 54.1951 67.0168 55.243 67.3661C56.2909 67.7154 57.4235 67.1491 57.7728 66.1012C58.384 64.2677 58.9286 62.3768 59.4075 60.4928Z" fill="url(#paint0_linear_2322_49255)"/>
</g>
<defs>
<linearGradient id="paint0_linear_2322_49255" x1="37.9221" y1="18" x2="37.9221" y2="67.4693" gradientUnits="userSpaceOnUse">
<stop offset="0.0260417" stop-color="#3F76FF"/>
<stop offset="1" stop-color="#8BF2E1"/>
</linearGradient>
<clipPath id="clip0_2322_49255">
<rect width="80" height="80" fill="white"/>
</clipPath>
</defs>
</svg>
