<svg width="80" height="80" viewBox="0 0 80 80" fill="none" xmlns="http://www.w3.org/2000/svg">
<g clip-path="url(#clip0_2322_51588)">
<path d="M15.8429 57.7812C18.5873 52.2562 20.0101 46.169 19.9992 40C20.0018 37.0006 20.6769 34.0399 21.9749 31.3358C23.2728 28.6318 25.1606 26.2531 27.4992 24.375M40 40C40.0136 50.1678 37.4321 60.171 32.5 69.0625M30 40C30 37.3478 31.0536 34.8043 32.9289 32.9289C34.8043 31.0536 37.3478 30 40 30C42.6522 30 45.1957 31.0536 47.0711 32.9289C48.9464 34.8043 50 37.3478 50 40C50.0206 50.3083 47.7469 60.4919 43.3438 69.8125M68.3125 57.5C69.432 51.7339 69.9971 45.8738 70 40C70 32.0435 66.8393 24.4129 61.2132 18.7868C55.5871 13.1607 47.9565 10 40 10C32.0435 10 24.4129 13.1607 18.7868 18.7868C13.1607 24.4129 10 32.0435 10 40C10.0089 43.4076 9.42743 46.791 8.28125 50M28.9992 50C27.9197 55.258 26.0105 60.3108 23.3429 64.9687M37.5 20.1562C38.3297 20.0565 39.1644 20.0044 40 20C45.3043 20 50.3914 22.1071 54.1421 25.8579C57.8929 29.6086 60 34.6957 60 40C59.9971 43.343 59.7884 46.6827 59.375 50M57.4696 60C57.0008 61.8438 56.4696 63.6875 55.8758 65.4688" stroke="url(#paint0_linear_2322_51588)" stroke-width="4" stroke-linecap="round" stroke-linejoin="round"/>
</g>
<defs>
<linearGradient id="paint0_linear_2322_51588" x1="39.1406" y1="10" x2="39.1406" y2="69.8125" gradientUnits="userSpaceOnUse">
<stop offset="0.0260417" stop-color="#3F76FF"/>
<stop offset="1" stop-color="#8BF2E1"/>
</linearGradient>
<clipPath id="clip0_2322_51588">
<rect width="80" height="80" fill="white"/>
</clipPath>
</defs>
</svg>
