<svg width="80" height="80" viewBox="0 0 80 80" fill="none" xmlns="http://www.w3.org/2000/svg">
<path d="M23.5019 64C20.1345 64.0037 16.8761 62.7884 14.3119 60.5724C11.7476 58.3564 10.0456 55.2848 9.51133 51.9093C8.97709 48.5337 9.64569 45.0754 11.3971 42.1554C13.1484 39.2353 15.8678 37.0448 19.0669 35.9773C18.2449 31.7018 19.0944 27.2694 21.4353 23.6187C23.7762 19.9679 27.4248 17.3856 31.6084 16.4185C35.792 15.4513 40.1821 16.1754 43.8491 18.4373C47.516 20.6991 50.1719 24.3212 51.2542 28.5365C52.9276 27.984 54.7199 27.9175 56.4285 28.3446C58.1372 28.7717 59.6942 29.6753 60.9237 30.9535C62.1531 32.2316 63.0061 33.8333 63.3862 35.5777C63.7663 37.3221 63.6585 39.1396 63.0748 40.825C65.6498 41.8236 67.7993 43.7058 69.1504 46.1451C70.5015 48.5845 70.969 51.427 70.4717 54.1797C69.9744 56.9323 68.5438 59.4214 66.428 61.2152C64.3122 63.0089 61.6447 63.9942 58.8882 64H23.5019Z" stroke="url(#paint0_linear_3325_78339)" stroke-width="4" stroke-linecap="round" stroke-linejoin="round"/>
<path d="M30 45.7694L36.25 51.4837L46.6667 38.1504" stroke="white" stroke-width="4" stroke-linecap="round" stroke-linejoin="round"/>
<defs>
<linearGradient id="paint0_linear_3325_78339" x1="39.9987" y1="16" x2="39.9987" y2="64" gradientUnits="userSpaceOnUse">
<stop offset="0.0260417" stop-color="#1ABAFF"/>
<stop offset="1" stop-color="#BFFFF4"/>
</linearGradient>
</defs>
</svg>
