<svg width="80" height="80" viewBox="0 0 80 80" fill="none" xmlns="http://www.w3.org/2000/svg">
<g clip-path="url(#clip0_3327_78472)">
<path opacity="0.8" d="M34.6977 37.0879C34.7104 46.6076 32.2935 55.9731 27.6758 64.2979" stroke="white" stroke-width="4" stroke-linecap="round" stroke-linejoin="round"/>
<path opacity="0.8" d="M25.3359 37.0872C25.3359 34.6041 26.3224 32.2227 28.0782 30.4668C29.834 28.711 32.2154 27.7246 34.6985 27.7246C37.1816 27.7246 39.5631 28.711 41.3189 30.4668C43.0747 32.2227 44.0611 34.6041 44.0611 37.0872C44.0804 46.7384 41.9517 56.273 37.8291 64.9994" stroke="white" stroke-width="4" stroke-linecap="round" stroke-linejoin="round"/>
<path opacity="0.8" d="M62.7847 37.0878C62.7847 29.6384 59.8255 22.4942 54.558 17.2267C49.2905 11.9592 42.1463 9 34.697 9C27.2476 9 20.1034 11.9592 14.8359 17.2267C9.56843 22.4942 6.6092 29.6384 6.6092 37.0878C6.61757 40.2782 6.07312 43.4459 5 46.4504" stroke="white" stroke-width="4" stroke-linecap="round" stroke-linejoin="round"/>
<path opacity="0.8" d="M24.3973 46.4512C23.3867 51.3741 21.5991 56.1048 19.1016 60.4658" stroke="white" stroke-width="4" stroke-linecap="round" stroke-linejoin="round"/>
<path fill-rule="evenodd" clip-rule="evenodd" d="M49.35 22.4336C45.4633 18.5468 40.1917 16.3633 34.6951 16.3633L34.6847 16.3633C33.826 16.3678 32.9683 16.4214 32.1158 16.5239C31.0191 16.6557 30.2369 17.6516 30.3687 18.7483C30.5005 19.8449 31.4964 20.6271 32.5931 20.4953C33.2924 20.4113 33.996 20.3672 34.7003 20.3633C39.1342 20.3647 43.3862 22.1266 46.5216 25.262C49.6581 28.3986 51.4203 32.6527 51.4203 37.0885C51.4203 38.1931 52.3157 39.0885 53.4203 39.0885C54.5248 39.0885 55.4203 38.1931 55.4203 37.0885C55.4203 31.5918 53.2367 26.3203 49.35 22.4336ZM24.2442 23.6677C25.1054 22.9761 25.2429 21.7172 24.5512 20.856C23.8596 19.9948 22.6007 19.8573 21.7395 20.549C19.3168 22.4946 17.3612 24.9588 16.0166 27.76C14.672 30.5613 13.9726 33.6284 13.9699 36.7357L13.9699 36.7409C13.9796 42.2069 12.7189 47.6002 10.2874 52.4955C9.79599 53.4848 10.1996 54.6851 11.1889 55.1765C12.1781 55.6678 13.3784 55.2642 13.8698 54.275C16.5766 48.8254 17.9802 42.8214 17.9699 36.7366C17.9725 34.2282 18.5372 31.7523 19.6227 29.4909C20.7085 27.2288 22.2877 25.2389 24.2442 23.6677Z" fill="url(#paint0_linear_3327_78472)"/>
<path d="M51.4987 53.8032C51.8221 53.8032 51.9973 53.6146 51.9973 53.2911V49.6658C51.9973 47.9137 52.9137 46.9973 54.6658 46.9973H58.3046C58.628 46.9973 58.8167 46.8221 58.8167 46.4987C58.8167 46.1752 58.628 46 58.3046 46H54.6388C52.2534 46 51 47.2399 51 49.6119V53.2911C51 53.6146 51.1752 53.8032 51.4987 53.8032ZM75.5013 53.8032C75.8248 53.8032 76 53.6146 76 53.2911V49.6119C76 47.2668 74.7601 46 72.3747 46H68.6954C68.372 46 68.1833 46.1752 68.1833 46.4987C68.1833 46.8221 68.372 46.9973 68.6954 46.9973H72.3342C74.0323 46.9973 75.0027 47.9137 75.0027 49.6658V53.2911C75.0027 53.6146 75.1779 53.8032 75.5013 53.8032ZM54.6388 71H58.3046C58.628 71 58.8167 70.8248 58.8167 70.5013C58.8167 70.1779 58.628 70.0027 58.3046 70.0027H54.6658C52.9137 70.0027 51.9973 69.0863 51.9973 67.3208V63.7089C51.9973 63.3854 51.8221 63.1833 51.4987 63.1833C51.1752 63.1833 51 63.3854 51 63.7089V67.3747C51 69.7601 52.2534 71 54.6388 71ZM68.6954 71H72.3747C74.7601 71 76 69.7197 76 67.3747V63.7089C76 63.3854 75.8248 63.1833 75.5013 63.1833C75.1779 63.1833 75.0027 63.3854 75.0027 63.7089V67.3208C75.0027 69.0863 74.0323 70.0027 72.3342 70.0027H68.6954C68.372 70.0027 68.1833 70.1779 68.1833 70.5013C68.1833 70.8248 68.372 71 68.6954 71Z" stroke="url(#paint1_linear_3327_78472)" stroke-width="1.5" stroke-linecap="round" stroke-linejoin="round"/>
<path d="M62.5395 60.1127H62.4126C61.9474 60.1127 61.7359 59.9531 61.7359 59.6339C61.7359 59.3813 61.9333 59.1951 62.2011 59.1951H62.6805C62.9907 59.1951 63.3008 58.969 63.3008 58.6099V54.4073C63.3008 54.1014 63.47 53.9551 63.7802 53.9551C64.1045 53.9551 64.2596 54.1014 64.2596 54.4073V58.4902C64.2596 59.5807 63.6815 60.1127 62.5395 60.1127Z" fill="white"/>
<path d="M59.184 56.4022C59.184 56.8012 58.9161 57.0538 58.4931 57.0538C58.0843 57.0538 57.8164 56.8012 57.8164 56.4022V54.6333C57.8164 54.2344 58.0843 53.9684 58.4931 53.9684C58.9161 53.9684 59.184 54.2211 59.184 54.6333V56.4022Z" fill="white"/>
<path d="M69.18 56.4022C69.18 56.8012 68.9122 57.0538 68.5033 57.0538C68.0803 57.0538 67.7984 56.8012 67.7984 56.4022V54.6333C67.7984 54.2211 68.0803 53.9684 68.5033 53.9684C68.9122 53.9684 69.18 54.2344 69.18 54.6333V56.4022Z" fill="white"/>
<path d="M67.6856 62.4933C66.5436 63.5706 64.9927 64.1824 63.4418 64.1824C61.891 64.1824 60.3119 63.5839 59.1981 62.4933C59.1135 62.4135 59.0289 62.2938 59.0289 62.1342C59.0289 61.8682 59.2404 61.6954 59.4942 61.6954C59.6633 61.6954 59.7902 61.7486 59.9594 61.9214C60.8195 62.7194 62.1165 63.2913 63.4418 63.2913C64.7671 63.2913 66.0783 62.7194 66.9242 61.9214C67.1075 61.7353 67.2344 61.6954 67.3895 61.6954C67.6433 61.6954 67.8548 61.8682 67.8548 62.1342C67.8548 62.3071 67.7702 62.4268 67.6856 62.4933Z" fill="white"/>
<path d="M62.5395 60.1127H62.4126C61.9474 60.1127 61.7359 59.9531 61.7359 59.6339C61.7359 59.3813 61.9333 59.1951 62.2011 59.1951H62.6805C62.9907 59.1951 63.3008 58.969 63.3008 58.6099V54.4073C63.3008 54.1014 63.47 53.9551 63.7802 53.9551C64.1045 53.9551 64.2596 54.1014 64.2596 54.4073V58.4902C64.2596 59.5807 63.6815 60.1127 62.5395 60.1127Z" stroke="white" stroke-width="0.5" stroke-linecap="round" stroke-linejoin="round"/>
<path d="M59.184 56.4022C59.184 56.8012 58.9161 57.0538 58.4931 57.0538C58.0843 57.0538 57.8164 56.8012 57.8164 56.4022V54.6333C57.8164 54.2344 58.0843 53.9684 58.4931 53.9684C58.9161 53.9684 59.184 54.2211 59.184 54.6333V56.4022Z" stroke="white" stroke-width="0.5" stroke-linecap="round" stroke-linejoin="round"/>
<path d="M69.18 56.4022C69.18 56.8012 68.9122 57.0538 68.5033 57.0538C68.0803 57.0538 67.7984 56.8012 67.7984 56.4022V54.6333C67.7984 54.2211 68.0803 53.9684 68.5033 53.9684C68.9122 53.9684 69.18 54.2344 69.18 54.6333V56.4022Z" stroke="white" stroke-width="0.5" stroke-linecap="round" stroke-linejoin="round"/>
<path d="M67.6856 62.4933C66.5436 63.5706 64.9927 64.1824 63.4418 64.1824C61.891 64.1824 60.3119 63.5839 59.1981 62.4933C59.1135 62.4135 59.0289 62.2938 59.0289 62.1342C59.0289 61.8682 59.2404 61.6954 59.4942 61.6954C59.6633 61.6954 59.7902 61.7486 59.9594 61.9214C60.8195 62.7194 62.1165 63.2913 63.4418 63.2913C64.7671 63.2913 66.0783 62.7194 66.9242 61.9214C67.1075 61.7353 67.2344 61.6954 67.3895 61.6954C67.6433 61.6954 67.8548 61.8682 67.8548 62.1342C67.8548 62.3071 67.7702 62.4268 67.6856 62.4933Z" stroke="white" stroke-width="0.5" stroke-linecap="round" stroke-linejoin="round"/>
</g>
<defs>
<linearGradient id="paint0_linear_3327_78472" x1="32.7492" y1="16.3633" x2="32.7492" y2="55.3857" gradientUnits="userSpaceOnUse">
<stop offset="0.0260417" stop-color="#1ABAFF"/>
<stop offset="1" stop-color="#73FFE7"/>
</linearGradient>
<linearGradient id="paint1_linear_3327_78472" x1="63.5" y1="46" x2="63.5" y2="71" gradientUnits="userSpaceOnUse">
<stop offset="0.0260417" stop-color="#1ABAFF"/>
<stop offset="1" stop-color="#BFFFF4"/>
</linearGradient>
<clipPath id="clip0_3327_78472">
<rect width="80" height="80" fill="white"/>
</clipPath>
</defs>
</svg>
