<svg width="80" height="80" viewBox="0 0 80 80" fill="none" xmlns="http://www.w3.org/2000/svg">
<circle cx="41.3333" cy="41.3333" r="13.3333" fill="#D4EFFF"/>
<circle cx="39.9987" cy="40.0007" r="14.6667" stroke="#161616" stroke-width="2"/>
<path d="M35.1353 39.7853L39.0543 43.942L46.2386 36.3955" stroke="#161616" stroke-width="2" stroke-linecap="round" stroke-linejoin="round"/>
<path fill-rule="evenodd" clip-rule="evenodd" d="M14.3953 20.792L38.8023 10.1148C39.5689 9.7794 40.4408 9.77945 41.2074 10.1149L65.606 20.7918C66.7586 21.2961 67.4741 22.4661 67.3978 23.722L66.1778 43.8146C66.0546 45.8435 65.61 47.7155 64.6916 49.3066C61.7758 54.358 54.2823 64.8293 39.9761 70.2818C23.7109 64.594 16.9643 53.3843 14.7854 48.747C14.2307 47.5664 13.9688 46.2118 13.8778 44.7136L13.1892 33.3731H11.1855L11.8815 44.8348C11.9813 46.4783 12.275 48.1073 12.9752 49.5975C15.2988 54.5426 22.3877 66.257 39.3351 72.1764C39.763 72.3259 40.2429 72.3203 40.6664 72.1591C55.5787 66.4834 63.3815 55.5769 66.4237 50.3064C67.5422 48.3687 68.0385 46.1691 68.1741 43.9359L69.3942 23.8432C69.5213 21.7501 68.3288 19.8002 66.4078 18.9595L42.0092 8.28266C40.7315 7.72356 39.2784 7.72348 38.0007 8.28244L13.5937 18.9597C11.6724 19.8002 10.4798 21.7504 10.6069 23.8436L10.7807 26.7064H12.7844L12.6032 23.7224C12.527 22.4664 13.2426 21.2963 14.3953 20.792Z" fill="#161616"/>
</svg>
