<svg width="28" height="28" viewBox="0 0 28 28" fill="none" xmlns="http://www.w3.org/2000/svg">
<path d="M23.3346 11.8794C23.3346 19.3037 14.0013 25.6673 14.0013 25.6673C14.0013 25.6673 4.66797 19.3037 4.66797 11.8794C4.66797 9.34783 5.6513 6.9199 7.40164 5.12978C9.15198 3.33966 11.5259 2.33398 14.0013 2.33398C16.4767 2.33398 18.8506 3.33966 20.601 5.12978C22.3513 6.9199 23.3346 9.34783 23.3346 11.8794Z" stroke="#161616" stroke-width="1.5" stroke-linecap="round" stroke-linejoin="round"/>
<path d="M14.0017 14.8083C15.72 14.8083 17.1128 13.4407 17.1128 11.7538C17.1128 10.0668 15.72 8.69922 14.0017 8.69922C12.2835 8.69922 10.8906 10.0668 10.8906 11.7538C10.8906 13.4407 12.2835 14.8083 14.0017 14.8083Z" fill="white" stroke="#161616" stroke-width="1.5" stroke-linecap="round" stroke-linejoin="round"/>
</svg>
