<svg width="24" height="24" viewBox="0 0 24 24" fill="none" xmlns="http://www.w3.org/2000/svg">
<ellipse cx="11.9992" cy="12.0731" rx="6.3" ry="6.4735" fill="#D4EFFF"/>
<path d="M8.85156 11.6758H9.67473" stroke="#161616" stroke-width="1.34592" stroke-linecap="round"/>
<path d="M14.3008 11.6758H15.1827" stroke="#161616" stroke-width="1.34592" stroke-linecap="round"/>
<path d="M15.1554 10.5633L15.1556 10.5633L15.158 10.5549C15.1771 10.4869 15.1842 10.4093 15.1842 10.3276C15.1842 10.19 15.1212 10.0742 15.0253 9.98318C14.9296 9.87935 14.8062 9.82054 14.6629 9.82054C14.5473 9.82054 14.4343 9.8426 14.3392 9.90338C14.2408 9.96621 14.1784 10.0597 14.1485 10.1692L13.3821 12.7332L12.6278 10.2474C12.5917 10.1205 12.5215 10.0133 12.4157 9.93511C12.3124 9.85877 12.1935 9.82054 12.0649 9.82054C11.9325 9.82054 11.8121 9.8645 11.7099 9.94811C11.6092 10.0238 11.5392 10.1246 11.5025 10.2455C11.5025 10.2456 11.5025 10.2457 11.5024 10.2458L10.7397 12.7333L9.98136 10.1695C9.9514 10.0598 9.88897 9.96626 9.79055 9.90338C9.69542 9.8426 9.58247 9.82054 9.46685 9.82054C9.32159 9.82054 9.19566 9.88078 9.09474 9.98335C9.00262 10.077 8.94554 10.1932 8.94554 10.3276C8.94554 10.4093 8.95266 10.4869 8.97177 10.5549L8.97157 10.5549L8.97436 10.5633L10.1073 13.9486L10.1073 13.9486L10.1082 13.9511C10.1532 14.0791 10.2338 14.186 10.3428 14.2713C10.4579 14.3613 10.591 14.4086 10.7366 14.4086C10.886 14.4086 11.0229 14.3629 11.1401 14.2713L11.1402 14.2714L11.1466 14.2659C11.2499 14.1771 11.3295 14.0723 11.3805 13.9514C11.3827 13.9463 11.3846 13.9411 11.3863 13.9357L12.0649 11.7872L12.7435 13.9357L12.7435 13.9357L12.7441 13.9376C12.788 14.0717 12.868 14.1838 12.9799 14.2713L12.9798 14.2713L12.985 14.2751C13.1041 14.3616 13.2382 14.4086 13.3834 14.4086C13.5329 14.4086 13.6697 14.3629 13.787 14.2713C13.896 14.186 13.9766 14.0791 14.0215 13.9511L14.0216 13.9511L14.0224 13.9486L15.1554 10.5633Z" fill="#161616" stroke="#161616" stroke-width="0.358912" stroke-linejoin="round"/>
<circle cx="12" cy="12" r="8.25" stroke="black" stroke-width="1.5"/>
</svg>
