<svg width="20" height="20" viewBox="0 0 20 20" fill="none" xmlns="http://www.w3.org/2000/svg">
<path d="M5.83203 8.83398H16.6654V17.1673H5.83203V8.83398Z" fill="#D4EFFF"/>
<mask id="path-2-inside-1_3598_115566" fill="white">
<path fill-rule="evenodd" clip-rule="evenodd" d="M4 6H7.84786C8.18078 6 8.49186 6.16567 8.67765 6.44192L9.72554 8H17C17.5523 8 18 8.44772 18 9V17C18 17.5523 17.5523 18 17 18H4C3.44772 18 3 17.5523 3 17V9V7C3 6.44772 3.44772 6 4 6Z"/>
</mask>
<path d="M8.67765 6.44192L7.43297 7.27904V7.27904L8.67765 6.44192ZM9.72554 8L8.48086 8.83712L8.92669 9.5H9.72554V8ZM7.84786 4.5H4V7.5H7.84786V4.5ZM9.92233 5.60481C9.45786 4.91419 8.68015 4.5 7.84786 4.5V7.5C7.68141 7.5 7.52586 7.41716 7.43297 7.27904L9.92233 5.60481ZM10.9702 7.16288L9.92233 5.60481L7.43297 7.27904L8.48086 8.83712L10.9702 7.16288ZM9.72554 9.5H17V6.5H9.72554V9.5ZM17 9.5C16.7239 9.5 16.5 9.27614 16.5 9H19.5C19.5 7.61929 18.3807 6.5 17 6.5V9.5ZM16.5 9V17H19.5V9H16.5ZM16.5 17C16.5 16.7239 16.7239 16.5 17 16.5V19.5C18.3807 19.5 19.5 18.3807 19.5 17H16.5ZM17 16.5H4V19.5H17V16.5ZM4 16.5C4.27614 16.5 4.5 16.7239 4.5 17H1.5C1.5 18.3807 2.61929 19.5 4 19.5V16.5ZM4.5 17V9H1.5V17H4.5ZM1.5 7V9H4.5V7H1.5ZM4 4.5C2.61929 4.5 1.5 5.61929 1.5 7H4.5C4.5 7.27614 4.27614 7.5 4 7.5V4.5Z" fill="#161616" mask="url(#path-2-inside-1_3598_115566)"/>
<path d="M13.3636 11.6992L14.5 13.0013M14.5 13.0013L13.3636 14.3034M14.5 13.0013H10.5" stroke="#161616" stroke-linecap="round" stroke-linejoin="round"/>
<path d="M15.5 9V5C15.5 4.44772 15.0523 4 14.5 4H6.5C5.94772 4 5.5 4.44771 5.5 5V7.35052" stroke="#161616" stroke-width="1.5"/>
</svg>
