<svg width="40" height="40" viewBox="0 0 40 40" fill="none" xmlns="http://www.w3.org/2000/svg">
<path fill-rule="evenodd" clip-rule="evenodd" d="M20.4598 5.02344C18.3876 5.02344 16.3957 5.82191 14.9233 7.25051C13.4501 8.67991 12.6178 10.6238 12.6178 12.656C12.6178 13.0968 12.9751 13.4541 13.4159 13.4541C13.8567 13.4541 14.214 13.0968 14.214 12.656C14.214 11.063 14.866 9.53012 16.0348 8.3961C17.2044 7.26128 18.7957 6.61963 20.4598 6.61963C22.124 6.61963 23.7153 7.26128 24.8849 8.3961C26.0536 9.53012 26.7056 11.063 26.7056 12.656V15.1337H12.2419C11.1038 15.1337 10.0077 15.5722 9.19577 16.3599C8.38306 17.1485 7.92188 18.2232 7.92188 19.3491V19.9075H9.51807V19.3491C9.51807 18.6623 9.79901 17.9987 10.3073 17.5055C10.8164 17.0115 11.5119 16.7299 12.2419 16.7299H27.5037H28.6777C29.4078 16.7299 30.1033 17.0115 30.6124 17.5055C31.1206 17.9987 31.4016 18.6623 31.4016 19.3491V30.0151C31.4016 30.7019 31.1206 31.3655 30.6124 31.8587C30.1033 32.3526 29.4078 32.6343 28.6777 32.6343H12.2419C11.5119 32.6343 10.8164 32.3526 10.3073 31.8587C9.79901 31.3655 9.51807 30.7019 9.51807 30.0151V23.6644H7.92188V30.0151C7.92188 31.141 8.38306 32.2157 9.19577 33.0043C10.0077 33.792 11.1038 34.2305 12.2419 34.2305H28.6777C29.8158 34.2305 30.912 33.792 31.7239 33.0043C32.5366 32.2157 32.9978 31.141 32.9978 30.0151V19.3491C32.9978 18.2232 32.5366 17.1485 31.7239 16.3599C30.912 15.5722 29.8158 15.1337 28.6777 15.1337H28.3018V12.656C28.3018 10.6238 27.4696 8.67991 25.9964 7.25051C24.524 5.82191 22.532 5.02344 20.4598 5.02344Z" fill="black"/>
<path d="M20.1477 23.0117C20.7276 23.0117 21.1977 22.564 21.1977 22.0117C21.1977 21.4594 20.7276 21.0117 20.1477 21.0117C19.5678 21.0117 19.0977 21.4594 19.0977 22.0117C19.0977 22.564 19.5678 23.0117 20.1477 23.0117Z" fill="#161616" stroke="#161616" stroke-width="1.53105" stroke-linejoin="round"/>
<path d="M20.1094 23.6328V28.1239" stroke="#161616" stroke-width="1.50373" stroke-linecap="round" stroke-linejoin="round"/>
</svg>
