<svg width="40" height="40" viewBox="0 0 40 40" fill="none" xmlns="http://www.w3.org/2000/svg">
<circle cx="20" cy="20" r="20" fill="#161616"/>
<g clip-path="url(#clip0_3969_94641)">
<path d="M23.4846 17.2889C23.4846 14.427 21.2212 12.1072 18.4288 12.1072H15.9827V14.5788H18.1596C19.6212 14.5788 20.8058 15.7929 20.8058 17.2889C20.8058 18.7849 19.6212 19.999 18.1596 19.999H15.9827V22.4687L20.8058 27.8908H24.0192L19.1442 22.4115C21.5962 22.0548 23.4846 19.9005 23.4846 17.2869V17.2889ZM10.625 29.375L13.3038 27.8928V12.1072L10.625 10.625V29.375ZM26.6962 12.1072V27.8928L29.375 29.375V10.625L26.6962 12.1072Z" fill="white"/>
</g>
<defs>
<clipPath id="clip0_3969_94641">
<rect width="18.75" height="18.75" fill="white" transform="translate(10.625 10.625)"/>
</clipPath>
</defs>
</svg>
