<svg width="40" height="40" viewBox="0 0 40 40" fill="none" xmlns="http://www.w3.org/2000/svg">
<path d="M29 28.5L34 33.5" stroke="white" stroke-width="1.5" stroke-linecap="round"/>
<circle cx="20" cy="20" r="12.25" stroke="white" stroke-width="1.5"/>
<path d="M14.5 19.8008H15.6" stroke="white" stroke-width="1.5" stroke-linecap="round"/>
<path d="M24.3984 19.8008H25.4984" stroke="white" stroke-width="1.5" stroke-linecap="round"/>
<path d="M22.4664 22.4403L20.7789 17.0284C20.7789 17.0282 20.7788 17.028 20.7788 17.0279C20.7271 16.8494 20.6296 16.7073 20.486 16.604C20.3432 16.5013 20.1807 16.45 20 16.45C19.8183 16.45 19.6554 16.5079 19.5128 16.6229C19.3707 16.7255 19.2732 16.8608 19.2214 17.0274L17.5158 22.4403L15.8271 16.8837C15.7875 16.7406 15.7089 16.6304 15.5908 16.557C15.4737 16.4841 15.3219 16.45 15.1395 16.45C14.9544 16.45 14.7898 16.5225 14.6476 16.6633C14.5181 16.7913 14.45 16.9361 14.45 17.0965C14.45 17.2316 14.4624 17.3452 14.4885 17.4357L14.4884 17.4357L14.4893 17.4381L16.6089 23.6017L16.6089 23.6017L16.6091 23.6024C16.6736 23.7812 16.7896 23.9334 16.9548 24.059C17.1216 24.186 17.3089 24.25 17.515 24.25C17.7325 24.25 17.926 24.1864 18.0934 24.059L18.0934 24.0591L18.0952 24.0576C18.2588 23.9207 18.3796 23.7639 18.4562 23.5872L18.4564 23.5873L18.4579 23.5828L20 18.831L21.5421 23.5828L21.5423 23.5833C21.6066 23.774 21.7224 23.9328 21.8883 24.059L21.8883 24.0591L21.8898 24.0601C22.0681 24.1861 22.2608 24.25 22.4668 24.25C22.6843 24.25 22.8778 24.1864 23.0452 24.059C23.2104 23.9334 23.3264 23.7812 23.3909 23.6024L23.3911 23.6017L25.5107 17.4381L25.5108 17.4381L25.5115 17.4357C25.5376 17.3452 25.55 17.2316 25.55 17.0965C25.55 16.935 25.4748 16.7903 25.3342 16.6632C25.2038 16.5222 25.0451 16.45 24.8605 16.45C24.6781 16.45 24.5263 16.4841 24.4092 16.557C24.2911 16.6304 24.2125 16.7406 24.1729 16.8837L22.4664 22.4403Z" fill="white" stroke="#FFF9F9" stroke-width="0.1"/>
</svg>
