<svg width="120" height="120" viewBox="0 0 120 120" fill="none" xmlns="http://www.w3.org/2000/svg">
<g clip-path="url(#clip0_3826_103565)">
<g filter="url(#filter0_f_3826_103565)">
<ellipse cx="30" cy="46" rx="26" ry="8" fill="#6592FF" fill-opacity="0.2"/>
</g>
<path d="M51.9022 10.2643L21.4672 18.9914C10.4276 22.1569 5.8644 30.502 9.05903 41.643L19.8788 79.3764C23.1258 90.7001 31.376 95.2128 42.4155 92.0473L72.8506 83.3202C84.0681 80.1036 88.4916 71.9567 85.2446 60.633L74.4248 22.8997C71.2302 11.7586 63.1197 7.04769 51.9022 10.2643Z" fill="url(#paint0_linear_3826_103565)"/>
<g filter="url(#filter1_b_3826_103565)">
<path d="M90.3327 32H58.6711C47.1867 32 40.5 38.764 40.5 50.354V89.608C40.5 101.388 47.1867 108 58.6711 108H90.3327C102.002 108 108.5 101.388 108.5 89.608V50.354C108.5 38.764 102.002 32 90.3327 32Z" fill="#6685FE" fill-opacity="0.3"/>
<path d="M58.6711 32.25H90.3327C96.1194 32.25 100.59 33.9261 103.614 37.0059C106.639 40.0864 108.25 44.6047 108.25 50.354V89.608C108.25 95.4533 106.639 99.9803 103.614 103.046C100.591 106.111 96.1209 107.75 90.3327 107.75H58.6711C52.9764 107.75 48.5046 106.112 45.4562 103.045C42.4076 99.9788 40.75 95.4514 40.75 89.608V50.354C40.75 44.6066 42.4071 40.088 45.4566 37.0066C48.5057 33.9256 52.9779 32.25 58.6711 32.25Z" stroke="url(#paint1_linear_3826_103565)" stroke-width="0.5" stroke-linecap="round" stroke-linejoin="round"/>
</g>
<ellipse cx="74.2874" cy="70.1664" rx="4.16634" ry="4.16635" fill="white"/>
<ellipse cx="89.9085" cy="70.1664" rx="4.16633" ry="4.16635" fill="white"/>
<ellipse cx="58.6663" cy="70.1664" rx="4.16634" ry="4.16635" fill="white"/>
</g>
<defs>
<filter id="filter0_f_3826_103565" x="-6" y="28" width="72" height="36" filterUnits="userSpaceOnUse" color-interpolation-filters="sRGB">
<feFlood flood-opacity="0" result="BackgroundImageFix"/>
<feBlend mode="normal" in="SourceGraphic" in2="BackgroundImageFix" result="shape"/>
<feGaussianBlur stdDeviation="5" result="effect1_foregroundBlur_3826_103565"/>
</filter>
<filter id="filter1_b_3826_103565" x="28.5" y="20" width="92" height="100" filterUnits="userSpaceOnUse" color-interpolation-filters="sRGB">
<feFlood flood-opacity="0" result="BackgroundImageFix"/>
<feGaussianBlur in="BackgroundImageFix" stdDeviation="6"/>
<feComposite in2="SourceAlpha" operator="in" result="effect1_backgroundBlur_3826_103565"/>
<feBlend mode="normal" in="SourceGraphic" in2="effect1_backgroundBlur_3826_103565" result="shape"/>
</filter>
<linearGradient id="paint0_linear_3826_103565" x1="76.6963" y1="8.84579" x2="-2.89196" y2="68.3408" gradientUnits="userSpaceOnUse">
<stop stop-color="#6592FF"/>
<stop offset="1" stop-color="#163AF5"/>
</linearGradient>
<linearGradient id="paint1_linear_3826_103565" x1="54.4483" y1="102.547" x2="109.577" y2="64.4169" gradientUnits="userSpaceOnUse">
<stop stop-color="white" stop-opacity="0.79"/>
<stop offset="1" stop-color="white" stop-opacity="0"/>
</linearGradient>
<clipPath id="clip0_3826_103565">
<rect width="120" height="120" fill="white"/>
</clipPath>
</defs>
</svg>
