<svg width="121" height="120" viewBox="0 0 121 120" fill="none" xmlns="http://www.w3.org/2000/svg">
<path d="M99.0663 106.153L99.0231 106.168C95.5828 107.365 91.8597 107.359 88.4219 106.153L91.79 96.6973L101.178 98.2304L99.0651 106.153H99.0663Z" fill="#F6A58B"/>
<path d="M21.174 106.153L21.2172 106.168C24.6574 107.365 28.3806 107.359 31.8184 106.153L28.4503 96.6973L19.0625 98.2304L21.1752 106.153H21.174Z" fill="#F6A58B"/>
<path d="M101.178 98.819L99.0652 106.213L99.0226 106.227C95.5819 107.344 91.8589 107.338 88.4219 106.213L89.1319 104.352C89.1631 104.36 89.1943 104.369 89.2256 104.378C93.5324 105.558 97.6254 102.383 97.7155 98.291L101.178 98.819Z" fill="#F1937B"/>
<path d="M19.0625 98.819L21.1751 106.213L21.2177 106.227C24.6584 107.344 28.3814 107.338 31.8184 106.213L31.1084 104.352C31.0772 104.36 31.0459 104.369 31.0147 104.378C26.7079 105.558 22.6149 102.383 22.5248 98.291L19.0625 98.819Z" fill="#F1937B"/>
<path d="M21.2741 107.859H21.034C19.9404 106.376 13.2267 99.2213 25.7916 96.952L28.6298 96.6973L28.2501 97.5458C18.2652 99.2001 20.3422 104.63 21.903 106.783C22.2228 107.225 21.8071 107.859 21.2747 107.859H21.2741Z" fill="#1A1A1A"/>
<path d="M99.5609 107.859C99.5609 107.859 106.391 100.106 94.6869 96.9727L91.7794 96.7184L94.9851 96.2106C94.9851 96.2106 93.3451 90.8338 91.6302 89.3097C89.9154 87.7857 60.1205 82.2395 60.1205 82.2395C60.1205 82.2395 30.3256 87.7857 28.6108 89.3097C26.8959 90.8338 25.2559 96.2106 25.2559 96.2106L28.4617 96.7184L25.5541 96.9727C13.8502 100.106 20.6801 107.859 20.6801 107.859L8.88537 105.809C4.83475 105.106 1.97074 100.937 2.35481 96.303C2.49225 94.6426 3.04321 93.0615 3.94266 91.7433L26.1149 59.265C29.0949 54.9 33.3915 51.9425 38.1778 50.9628L60.1205 46.4707L82.0633 50.9628C86.8495 51.9425 91.1462 54.9 94.1262 59.265L116.298 91.7433C117.198 93.0609 117.749 94.6426 117.886 96.303C118.27 100.937 115.406 105.106 111.356 105.809L99.5609 107.859Z" fill="#333333"/>
<path d="M32.5737 87.7536C30.457 88.2975 28.9968 88.7584 28.6556 89.0595C26.9438 90.5699 25.3066 95.899 25.3066 95.899L16.6719 91.4235L22.959 90.1594L33.414 73.5762L32.5737 87.7536Z" fill="#1A1A1A"/>
<path d="M98.9651 107.859H99.2052C100.299 106.376 107.012 99.2213 94.4476 96.952L91.6094 96.6973L91.9891 97.5458C101.974 99.2001 99.8969 104.63 98.3362 106.783C98.0164 107.225 98.432 107.859 98.9645 107.859H98.9651Z" fill="#1A1A1A"/>
<path d="M87.6678 87.7536C89.7846 88.2975 91.2447 88.7584 91.5859 89.0595C93.2977 90.5699 94.9349 95.899 94.9349 95.899L103.57 91.4235L97.2832 90.1594L86.8281 73.5762L87.6685 87.7536H87.6678Z" fill="#1A1A1A"/>
<path d="M81.2329 41.687H39.0054C39.0054 41.687 37.8552 23.3624 57.0407 9.96717C58.8874 8.67761 61.3509 8.67761 63.1982 9.96717C82.3831 23.3624 81.2329 41.687 81.2329 41.687Z" fill="#333333"/>
<path d="M76.9686 51.9205C73.7739 55.9837 70.258 58.4455 67.2685 59.9341C62.7531 62.1818 57.4844 62.1818 52.969 59.9341C49.9789 58.4455 46.463 55.9837 43.2683 51.9205C36.8493 43.7562 37.0001 36.9217 48.2556 32.6861C55.9045 29.8078 64.3342 29.8078 71.9831 32.6861C83.238 36.9217 83.3894 43.7562 76.9692 51.9205H76.9686Z" fill="black"/>
<path d="M54.1368 43.3767L57.3378 41.8344L49.9336 37.3477C49.9336 37.3477 49.23 40.264 54.1368 43.3767Z" fill="white"/>
<path d="M67.3125 43.3767L64.1114 41.8344L71.5156 37.3477C71.5156 37.3477 72.2193 40.264 67.3125 43.3767Z" fill="white"/>
<path d="M76.969 52.2169C73.7742 56.1541 70.2583 58.5397 67.2689 59.9822C62.7534 62.1608 57.4842 62.1608 52.9693 59.9822C49.9793 58.5403 46.4628 56.1541 43.2686 52.2169C38.9958 46.9523 37.6341 42.2572 40.5194 38.4961C40.588 41.6123 42.4106 45.0271 45.4589 48.571C48.5238 52.1342 51.6327 54.2114 54.1864 55.4392C57.9616 57.2528 62.2772 57.2528 66.0517 55.4392C68.6061 54.2114 71.7144 52.1342 74.7793 48.571C77.8276 45.0271 79.6502 41.6123 79.7188 38.4961C82.6047 42.2572 81.2417 46.9523 76.9696 52.2169H76.969Z" fill="#1A1A1A"/>
<path d="M51.8085 104.67C51.7044 104.609 49.2313 103.128 46.7021 100.688C45.2063 99.2444 44.0036 97.7628 43.1286 96.2854C42.0133 94.4018 41.4265 92.5157 41.3852 90.6797C41.2934 86.5983 43.8546 82.8189 48.9985 79.4457C54.9627 75.5351 58.0898 71.4379 58.293 67.2681C58.5393 62.2125 54.3124 58.757 54.2693 58.7228L55.1616 57.6328C55.2115 57.6725 56.3926 58.6301 57.5423 60.2929C59.0757 62.5102 59.8245 64.9459 59.7075 67.3358C59.4809 71.9765 56.1414 76.4446 49.78 80.6156C45.069 83.7046 42.7209 87.0802 42.801 90.6486C42.9598 97.6981 52.4409 103.411 52.5364 103.467L51.8079 104.67H51.8085Z" fill="black"/>
<path d="M55.6292 58.9305C56.2156 58.0677 56.2492 57.0665 55.7042 56.6943C55.1592 56.322 54.242 56.7196 53.6556 57.5824C53.0691 58.4451 53.0356 59.4463 53.5806 59.8186C54.1256 60.1909 55.0428 59.7933 55.6292 58.9305Z" fill="black"/>
<path d="M58.1705 100.684L57.3281 99.5437C57.3689 99.5127 61.4431 96.3793 65.4661 92.5081C67.8147 90.2479 69.6846 88.1844 71.0234 86.3754C72.6338 84.199 73.4561 82.4303 73.4664 81.1178C73.4725 80.3526 73.2051 79.781 72.6235 79.3199C65.3632 73.5571 61.8585 68.2418 62.2069 63.5222C62.5358 59.067 66.1952 56.9253 66.3505 56.8359L67.0382 58.0796C67.0065 58.0982 63.8654 59.9587 63.6029 63.6475C63.4726 65.4808 64.0591 67.4921 65.3467 69.6244C66.9687 72.3116 69.7072 75.1942 73.4847 78.1929C74.4123 78.9289 74.8777 79.9169 74.8673 81.1289C74.8436 84.0029 72.001 88.1832 66.4187 93.5532C62.3397 97.4771 58.2113 100.651 58.1699 100.683L58.1705 100.684Z" fill="black"/>
<path d="M67.6886 59.4561C68.2336 59.0839 68.2 58.0827 67.6136 57.2199C67.0272 56.3571 66.1099 55.9595 65.5649 56.3318C65.0199 56.7041 65.0535 57.7053 65.6399 58.568C66.2264 59.4308 67.1436 59.8284 67.6886 59.4561Z" fill="black"/>
<path d="M89.0175 70.3887H31.2225C29.7901 70.3887 28.6289 71.5748 28.6289 73.038V107.602C28.6289 109.065 29.7901 110.251 31.2225 110.251H89.0175C90.45 110.251 91.6112 109.065 91.6112 107.602V73.038C91.6112 71.5748 90.45 70.3887 89.0175 70.3887Z" fill="#E6E6E6"/>
<path d="M91.6112 103.869V107.635C91.6112 109.078 90.4506 110.247 89.0181 110.247H31.222C29.7895 110.247 28.6289 109.078 28.6289 107.635V103.869C28.6289 105.312 29.7895 106.481 31.222 106.481H89.0181C90.4506 106.481 91.6112 105.312 91.6112 103.869Z" fill="#CCCCCC"/>
<path d="M61.8318 52.5907C61.3659 51.9015 61.1165 51.8185 61.1165 51.8185C60.9433 52.0016 60.8127 52.2206 60.7343 52.4596C60.6558 52.6987 60.6314 52.9519 60.6627 53.2012C59.5769 52.6405 59.2687 51.8332 59.2687 51.8332C58.8095 52.2966 59.1333 52.9658 59.1333 52.9658C58.0474 52.4051 57.9899 51.9141 57.9899 51.9141C57.7113 52.1291 57.6404 52.907 57.6404 52.907C55.4322 52.076 54.6641 48.3691 54.6641 48.3691C54.6641 48.3691 55.8495 50.5167 57.238 50.9654C57.238 50.9654 57.0387 49.6641 57.4412 49.2664C57.4412 49.2664 57.8171 50.4008 58.8718 50.8109C58.8718 50.8109 58.2974 49.8253 58.8975 49.1487C59.1 49.6014 59.4371 49.9813 59.8634 50.2372C59.8701 49.7887 60.045 49.3584 60.3538 49.031C60.5465 49.5469 60.8971 49.9894 61.3563 50.296C61.3563 50.296 61.5359 49.1498 61.6272 48.0307C61.6272 48.0307 62.5199 48.7662 62.7028 49.6488C62.7028 49.6488 63.4149 49.2856 63.475 48.016C63.8407 48.3859 64.1221 48.8298 64.3 49.3178C64.3 49.3178 65.2163 48.594 65.74 46.442C65.74 46.442 66.3985 49.6193 64.5615 51.4727C64.3485 51.0654 64.0835 50.6872 63.7731 50.3475C63.691 50.9152 63.4883 51.4593 63.1784 51.9435C63.0339 51.5565 62.7709 51.2246 62.4265 50.9947C62.4265 50.9947 62.2031 52.0423 61.8318 52.5907Z" fill="#E6E6E6"/>
</svg>
