<svg width="138" height="135" viewBox="0 0 138 135" fill="none" xmlns="http://www.w3.org/2000/svg">
<g filter="url(#filter0_f_3334_119934)">
<ellipse cx="44.0172" cy="19.1117" rx="44.0172" ry="19.1117" transform="matrix(-0.991874 0.127226 0.127226 0.991874 110.27 65.0527)" fill="#6592FF" fill-opacity="0.5"/>
</g>
<g clip-path="url(#clip0_3334_119934)">
<path d="M77.8311 54.2643L43.5113 19.943C39.8985 16.2623 33.9013 16.1543 30.1766 19.7463C28.8783 20.9463 27.9889 22.5118 27.571 24.1633L15.0151 71.3239C14.3503 76.4151 18.0273 81.1031 23.2004 81.7382C24.2282 81.8397 25.2869 81.7998 26.301 81.5943L73.4227 69.0275C75.8024 68.2563 77.7402 66.6126 78.9023 64.3938C80.0626 62.1686 80.2742 59.6228 79.5021 57.2676C79.1624 56.2621 78.672 55.3376 77.8311 54.2643Z" fill="url(#paint0_linear_3334_119934)"/>
<g filter="url(#filter1_b_3334_119934)">
<path d="M112.741 86.6194L81.3382 32.2661C78.0554 26.4598 70.5827 24.3251 64.7081 27.5741C62.678 28.6414 61.0366 30.3022 59.9567 32.2277L28.3379 87.0036C25.7894 93.1472 28.8131 100.234 35.0763 102.753C36.329 103.223 37.668 103.526 39.0071 103.607H102.245C105.484 103.436 108.465 102.028 110.668 99.641C112.871 97.2458 113.994 94.1335 113.821 90.9314C113.735 89.561 113.432 88.2417 112.741 86.6194Z" fill="#6685FE" fill-opacity="0.3"/>
<path d="M80.9259 32.4992L80.9281 32.5031L112.316 86.8313C112.98 88.3958 113.266 89.6552 113.348 90.959C113.513 94.0313 112.436 97.0185 110.319 99.3203C108.202 101.613 105.342 102.966 102.232 103.134H39.0215C37.7402 103.054 36.4545 102.764 35.248 102.312C29.2371 99.8912 26.3401 93.1001 28.7638 87.2134L60.3669 32.4645L60.367 32.4645L60.3698 32.4594C61.4073 30.6094 62.9837 29.0159 64.9286 27.9933L64.9286 27.9934L64.9374 27.9886C70.5841 24.8656 77.7708 26.9187 80.9259 32.4992Z" stroke="url(#paint1_linear_3334_119934)" stroke-width="0.947368" stroke-linecap="round" stroke-linejoin="round"/>
</g>
<g filter="url(#filter2_b_3334_119934)">
<mask id="path-5-inside-1_3334_119934" fill="white">
<path fill-rule="evenodd" clip-rule="evenodd" d="M70.3424 74.5271C72.4212 74.5271 74.1102 72.5917 74.1102 70.275V56.6209C74.1102 54.2994 72.4212 52.4219 70.3424 52.4219C68.2636 52.4219 66.5312 54.2994 66.5312 56.6209V70.275C66.5312 72.5917 68.2636 74.5271 70.3424 74.5271ZM66.5312 82.1082C66.5312 84.1697 68.2636 85.8956 70.3424 85.8956C72.4212 85.8956 74.1102 84.1697 74.1102 82.0609C74.1102 79.9994 72.4212 78.3166 70.3424 78.3166C68.2636 78.3166 66.5312 80.0381 66.5312 82.1082Z"/>
</mask>
<path fill-rule="evenodd" clip-rule="evenodd" d="M70.3424 74.5271C72.4212 74.5271 74.1102 72.5917 74.1102 70.275V56.6209C74.1102 54.2994 72.4212 52.4219 70.3424 52.4219C68.2636 52.4219 66.5312 54.2994 66.5312 56.6209V70.275C66.5312 72.5917 68.2636 74.5271 70.3424 74.5271ZM66.5312 82.1082C66.5312 84.1697 68.2636 85.8956 70.3424 85.8956C72.4212 85.8956 74.1102 84.1697 74.1102 82.0609C74.1102 79.9994 72.4212 78.3166 70.3424 78.3166C68.2636 78.3166 66.5312 80.0381 66.5312 82.1082Z" fill="white"/>
<path d="M73.8576 70.275C73.8576 72.483 72.2528 74.2745 70.3424 74.2745V74.7798C72.5896 74.7798 74.3628 72.7005 74.3628 70.275H73.8576ZM73.8576 56.6209V70.275H74.3628V56.6209H73.8576ZM70.3424 52.6745C72.2568 52.6745 73.8576 54.4127 73.8576 56.6209H74.3628C74.3628 54.1861 72.5856 52.1692 70.3424 52.1692V52.6745ZM66.7839 56.6209C66.7839 54.4166 68.4244 52.6745 70.3424 52.6745V52.1692C68.1027 52.1692 66.2786 54.1822 66.2786 56.6209H66.7839ZM66.7839 70.275V56.6209H66.2786V70.275H66.7839ZM70.3424 74.2745C68.4285 74.2745 66.7839 72.479 66.7839 70.275H66.2786C66.2786 72.7044 68.0987 74.7798 70.3424 74.7798V74.2745ZM70.3424 85.6429C68.4018 85.6429 66.7839 84.0289 66.7839 82.1082H66.2786C66.2786 84.3106 68.1254 86.1482 70.3424 86.1482V85.6429ZM73.8576 82.0609C73.8576 84.0347 72.2772 85.6429 70.3424 85.6429V86.1482C72.5652 86.1482 74.3628 84.3048 74.3628 82.0609H73.8576ZM70.3424 78.5692C72.283 78.5692 73.8576 80.1402 73.8576 82.0609H74.3628C74.3628 79.8586 72.5594 78.064 70.3424 78.064V78.5692ZM66.7839 82.1082C66.7839 80.179 68.4018 78.5692 70.3424 78.5692V78.064C68.1254 78.064 66.2786 79.8973 66.2786 82.1082H66.7839Z" fill="url(#paint2_linear_3334_119934)" mask="url(#path-5-inside-1_3334_119934)"/>
</g>
</g>
<defs>
<filter id="filter0_f_3334_119934" x="0.680922" y="45.2063" width="136.72" height="88.8061" filterUnits="userSpaceOnUse" color-interpolation-filters="sRGB">
<feFlood flood-opacity="0" result="BackgroundImageFix"/>
<feBlend mode="normal" in="SourceGraphic" in2="BackgroundImageFix" result="shape"/>
<feGaussianBlur stdDeviation="12.3158" result="effect1_foregroundBlur_3334_119934"/>
</filter>
<filter id="filter1_b_3334_119934" x="12.2757" y="10.8948" width="116.722" height="107.87" filterUnits="userSpaceOnUse" color-interpolation-filters="sRGB">
<feFlood flood-opacity="0" result="BackgroundImageFix"/>
<feGaussianBlur in="BackgroundImageFix" stdDeviation="7.57895"/>
<feComposite in2="SourceAlpha" operator="in" result="effect1_backgroundBlur_3334_119934"/>
<feBlend mode="normal" in="SourceGraphic" in2="effect1_backgroundBlur_3334_119934" result="shape"/>
</filter>
<filter id="filter2_b_3334_119934" x="57.0576" y="42.9482" width="26.5255" height="52.422" filterUnits="userSpaceOnUse" color-interpolation-filters="sRGB">
<feFlood flood-opacity="0" result="BackgroundImageFix"/>
<feGaussianBlur in="BackgroundImageFix" stdDeviation="4.73684"/>
<feComposite in2="SourceAlpha" operator="in" result="effect1_backgroundBlur_3334_119934"/>
<feBlend mode="normal" in="SourceGraphic" in2="effect1_backgroundBlur_3334_119934" result="shape"/>
</filter>
<linearGradient id="paint0_linear_3334_119934" x1="73.3432" y1="11.4762" x2="1.53149" y2="72.3317" gradientUnits="userSpaceOnUse">
<stop stop-color="#6592FF"/>
<stop offset="1" stop-color="#163AF5"/>
</linearGradient>
<linearGradient id="paint1_linear_3334_119934" x1="41.1878" y1="35.0879" x2="89.281" y2="101.45" gradientUnits="userSpaceOnUse">
<stop stop-color="white" stop-opacity="0.25"/>
<stop offset="1" stop-color="white" stop-opacity="0"/>
</linearGradient>
<linearGradient id="paint2_linear_3334_119934" x1="67.7377" y1="56.3216" x2="79.0951" y2="59.5065" gradientUnits="userSpaceOnUse">
<stop stop-color="white" stop-opacity="0.25"/>
<stop offset="1" stop-color="white" stop-opacity="0"/>
</linearGradient>
<clipPath id="clip0_3334_119934">
<rect width="99.1579" height="86.5263" fill="white" transform="translate(14.7383 17.0527)"/>
</clipPath>
</defs>
</svg>
